<?xml version="1.0" standalone="no"?>
<!DOCTYPE svg PUBLIC "-//W3C//DTD SVG 1.1//EN" "http://www.w3.org/Graphics/SVG/1.1/DTD/svg11.dtd" >
<svg xmlns="http://www.w3.org/2000/svg">
<metadata></metadata>
<defs>
<font id="frescosans_stdlight" horiz-adv-x="1216" >
<font-face units-per-em="2048" ascent="1536" descent="-512" />
<missing-glyph horiz-adv-x="415" />
<glyph unicode="&#xfb01;" horiz-adv-x="1040" d="M63 911v97h160v137q0 184 110.5 287.5t299.5 103.5h248v-96h-281q-135 0 -203.5 -81t-68.5 -222v-129h448l80 32h25v-1040h-105v911h-448v-911h-105v911h-160z" />
<glyph unicode="&#xfb02;" horiz-adv-x="1024" d="M63 911v97h160v137q0 184 110.5 287.5t299.5 103.5h231v-1536h-104v1440h-160q-135 0 -203.5 -81t-68.5 -222v-129h256v-97h-256v-911h-105v911h-160z" />
<glyph horiz-adv-x="0" />
<glyph horiz-adv-x="682" />
<glyph unicode="&#xd;" horiz-adv-x="681" />
<glyph unicode=" "  horiz-adv-x="415" />
<glyph unicode="&#x09;" horiz-adv-x="415" />
<glyph unicode="&#xa0;" horiz-adv-x="415" />
<glyph unicode="!" horiz-adv-x="512" d="M168 72q0 37 26.5 62.5t61.5 25.5t61.5 -25.5t26.5 -62.5q0 -35 -26.5 -61.5t-61.5 -26.5t-61.5 26.5t-26.5 61.5zM193 1024v449h126v-449l-38 -575h-50z" />
<glyph unicode="&#x22;" horiz-adv-x="720" d="M160 1343v130h112v-130l-32 -256h-47zM449 1343v130h110v-130l-31 -256h-49z" />
<glyph unicode="#" d="M63 352v64h265v641h-265v63h265v353h63v-353h432v353h66v-353h264v-63h-264v-641h264v-64h-264v-352h-66v352h-432v-352h-63v352h-265zM391 416h432v641h-432v-641z" />
<glyph unicode="$" d="M209 41v102h14q115 -72 305 -71q164 0 266.5 77.5t102.5 227.5q0 109 -60.5 181.5t-181.5 121.5l-198 88q-115 47 -178.5 139t-63.5 213q0 156 104.5 252t264.5 113v180h104v-178q137 -6 240 -47v-97h-17q-119 57 -278 58q-143 0 -228.5 -70.5t-85.5 -210.5 q0 -100 48.5 -161.5t152.5 -110.5l193 -88q287 -121 286 -369q0 -174 -110.5 -280.5t-296.5 -122.5v-236h-105v234q-182 8 -278 55z" />
<glyph unicode="%" horiz-adv-x="1679" d="M55 1071q0 176 91.5 297t261.5 121q174 0 263 -120t89 -298t-90 -297t-262 -119t-262.5 119t-90.5 297zM160 1071.5q0 -145.5 59.5 -237t188.5 -91.5t188 91.5t59 237t-59 237.5t-188 92t-188.5 -92t-59.5 -237.5zM391 0v25l826 1448h71v-25l-823 -1448h-74zM920 399 q0 176 91 296t261 120q174 0 263 -118.5t89 -297t-90 -297t-262 -118.5t-262 118.5t-90 296.5zM1024 399.5q0 -145.5 59.5 -236.5t188.5 -91t188.5 91t59.5 236.5t-59.5 236.5t-188.5 91t-188.5 -91t-59.5 -236.5z" />
<glyph unicode="&#x26;" horiz-adv-x="1439" d="M96 344q0 119 59.5 209t188.5 190l43 39l-35 41q-168 186 -168 336q0 143 93.5 236.5t226.5 93.5t215 -78t82 -203q0 -104 -46 -188t-155 -172l-76 -64l410 -475q133 180 153 412v14h-159v96h432v-96h-176v-14q-33 -274 -191 -479l31 -33q72 -80 132.5 -108.5 t156.5 -28.5h47v-64q-57 -25 -127 -24q-143 0 -281 151l-26 29q-185 -180 -414 -180q-195 0 -305.5 94t-110.5 266zM201 344q0 -129 85 -200.5t226 -71.5q201 0 356 159l-424 488l-45 -39q-94 -72 -146 -147.5t-52 -188.5zM289 1159q0 -55 31.5 -116.5t57 -91t71.5 -79.5 l20 -24l76 63q92 78 121.5 142.5t29.5 154.5q0 88 -49 140.5t-143 52.5q-102 0 -158.5 -63.5t-56.5 -178.5z" />
<glyph unicode="'" horiz-adv-x="432" d="M160 1343v130h112v-130l-32 -256h-47z" />
<glyph unicode="(" horiz-adv-x="520" d="M96 592v33q0 270 100.5 504.5t227.5 343.5h63v-33q-287 -287 -286 -815v-33q0 -528 286 -815v-33h-63q-127 106 -227.5 340.5t-100.5 507.5z" />
<glyph unicode=")" horiz-adv-x="520" d="M33 -223q287 287 286 815v33q0 528 -286 815v33h63q127 -109 227.5 -343.5t100.5 -504.5v-33q0 -272 -100.5 -507t-227.5 -341h-63v33z" />
<glyph unicode="*" horiz-adv-x="1032" d="M127 874l102 60l250 90l33 16l-33 17l-250 104l-102 62l43 75l104 -61l213 -166l25 -14v22l-41 273v121h88v-121l-31 -273v-22l25 14l205 166l104 61l43 -75l-102 -62l-244 -104l-31 -17l31 -16l244 -90l102 -60l-43 -75l-104 59l-205 150l-25 16v-25l31 -256v-118h-88 v118l41 256v25l-25 -16l-213 -150l-104 -59z" />
<glyph unicode="+" d="M129 672v63h446v465h66v-465h446v-63h-446v-463h-66v463h-446z" />
<glyph unicode="," horiz-adv-x="512" d="M152 -242q49 49 72.5 111.5t23.5 105.5v25q-80 12 -80 80q0 35 25.5 57.5t62.5 22.5q39 0 63.5 -29t24.5 -68q0 -206 -113 -319h-79v14z" />
<glyph unicode="-" horiz-adv-x="831" d="M129 647v113h576v-113h-576z" />
<glyph unicode="." horiz-adv-x="512" d="M168 72q0 37 26.5 62.5t61.5 25.5t61.5 -25.5t26.5 -62.5q0 -35 -26.5 -61.5t-61.5 -26.5t-61.5 26.5t-26.5 61.5z" />
<glyph unicode="/" horiz-adv-x="952" d="M63 0v25l738 1448h88v-25l-737 -1448h-89z" />
<glyph unicode="0" d="M113 721q0 340 127 554t368 214q170 0 284 -104.5t163 -271.5t49 -392q0 -346 -125 -541.5t-371 -195.5q-496 0 -495 737zM223 721q0 -139 20.5 -252t63.5 -204t120 -142t181.5 -51t181 51t119.5 142t62.5 204t19.5 252t-19.5 256t-62.5 215t-119.5 153.5t-181 55.5 t-181.5 -56.5t-120 -153.5t-63.5 -215t-20.5 -255z" />
<glyph unicode="1" d="M215 1247v96l457 146h41v-1489h-105v1368l-377 -121h-16z" />
<glyph unicode="2" d="M143 0v72l361 352q88 88 119.5 121t96 108.5t89.5 123.5t48.5 120t23.5 143q0 184 -89.5 272.5t-246.5 88.5q-172 0 -314 -121h-16v96q147 113 330 113q205 0 325.5 -109.5t120.5 -339.5q0 -63 -14 -124.5t-46 -120t-57.5 -102.5t-77 -100t-74 -81t-77.5 -77t-61 -58 l-287 -281h807v-96h-961z" />
<glyph unicode="3" d="M160 72v96h16q182 -96 383 -96q176 0 297 87t121 257q0 139 -92 209.5t-252 70.5h-201v80l201 33q117 18 206 102t89 217q0 137 -91.5 205t-244.5 68q-84 0 -179.5 -33t-156.5 -72h-16v97q180 96 352 96q205 0 326.5 -93t121.5 -268q0 -248 -256 -352q145 -31 224 -123 t79 -229q0 -209 -148.5 -324.5t-379.5 -115.5q-233 0 -399 88z" />
<glyph unicode="4" d="M96 449v79l735 961h66v-944h248v-96h-248v-449h-104v449h-697zM215 545h578v743z" />
<glyph unicode="5" d="M160 80v96h16q166 -104 369 -104q178 0 288.5 95t110.5 265q0 352 -448 352h-265v689h793v-97h-688v-495h160q260 0 410.5 -113t150.5 -328q0 -207 -143.5 -331.5t-368.5 -124.5q-217 0 -385 96z" />
<glyph unicode="6" d="M129 641q0 391 210 611.5t550 220.5h168v-97h-185q-258 0 -419.5 -146.5t-200.5 -414.5h12q156 145 369 146q209 0 331.5 -129.5t122.5 -352.5q0 -215 -129 -355t-350 -140q-229 0 -354 186t-125 471zM240 641q0 -246 99 -407.5t277 -161.5q174 0 267.5 113.5t93.5 293.5 q0 178 -93 285.5t-259 107.5q-195 0 -383 -159q-2 -25 -2 -72z" />
<glyph unicode="7" d="M135 1376v97h936v-89l-727 -1384h-104v16l729 1360h-834z" />
<glyph unicode="8" d="M135 391q0 76 27.5 142.5t80 120t75 72.5t67.5 50l57 45l-2 2q-106 47 -172.5 132t-66.5 204q0 166 120.5 271.5t294.5 105.5q195 0 314 -101.5t119 -275.5q0 -197 -193 -350l-61 -51q127 -66 201.5 -149t74.5 -218q0 -186 -139 -296.5t-340 -110.5q-197 0 -327 110.5 t-130 296.5zM248 391q0 -141 98 -230t246 -89q156 0 262.5 87t106.5 232q0 188 -218 289l-225 106l-61 -51q-70 -59 -105 -94t-69.5 -103.5t-34.5 -146.5zM311 1159q0 -170 185 -256l223 -106l41 34q82 74 129 150t47 178q0 139 -88 214t-232 75q-131 0 -218 -78t-87 -211z " />
<glyph unicode="9" d="M129 991q0 213 133 355.5t346 142.5q240 0 359.5 -177t119.5 -464q0 -397 -196.5 -622.5t-530.5 -225.5h-137v96h154q252 0 400.5 145.5t187.5 413.5h-13q-170 -143 -368 -143q-211 0 -333 129t-122 350zM240 991q0 -176 94 -283.5t258 -107.5q211 0 383 166q0 12 1 40 t1 42q0 248 -94.5 400.5t-282.5 152.5q-164 0 -262 -116t-98 -294z" />
<glyph unicode=":" horiz-adv-x="512" d="M168 72q0 37 26.5 62.5t61.5 25.5t61.5 -25.5t26.5 -62.5q0 -35 -26.5 -61.5t-61.5 -26.5t-61.5 26.5t-26.5 61.5zM168 920q0 37 26.5 62.5t61.5 25.5t61.5 -26t26.5 -62q0 -35 -26.5 -62t-61.5 -27t-61.5 27t-26.5 62z" />
<glyph unicode=";" horiz-adv-x="512" d="M152 -242q49 49 72.5 111.5t23.5 105.5v25q-80 12 -80 80q0 35 25.5 57.5t62.5 22.5q39 0 63.5 -29t24.5 -68q0 -206 -113 -319h-79v14zM168 920q0 37 26.5 62.5t61.5 25.5t61.5 -26t26.5 -62q0 -35 -26.5 -62t-61.5 -27t-61.5 27t-26.5 62z" />
<glyph unicode="&#x3c;" d="M129 655v66l942 479h16v-72l-872 -440l872 -440v-72h-16z" />
<glyph unicode="=" d="M129 496v63h958v-63h-958zM129 911v66h958v-66h-958z" />
<glyph unicode="&#x3e;" d="M129 176v72l870 440l-870 440v72h14l944 -479v-66l-944 -479h-14z" />
<glyph unicode="?" horiz-adv-x="847" d="M160 1368v105h209q170 0 276.5 -79t106.5 -235q0 -70 -22.5 -130t-76 -118.5t-82 -84t-100.5 -83.5l-127 -102v-201h-104v176q0 43 10 60.5t53 50.5l113 88q113 88 169 158.5t56 163.5q0 131 -70.5 181t-218.5 50h-192zM209 72q0 37 25.5 62.5t62.5 25.5q35 0 61.5 -25.5 t26.5 -62.5q0 -35 -26.5 -61.5t-61.5 -26.5q-37 0 -62.5 26.5t-25.5 61.5z" />
<glyph unicode="@" horiz-adv-x="1984" d="M96 512q0 414 267.5 695.5t676.5 281.5q385 0 616.5 -232.5t231.5 -615.5q0 -129 -24.5 -242.5t-75.5 -209t-140 -150.5t-208 -55q-158 0 -232 120h-16q-43 -49 -114.5 -84.5t-141.5 -35.5q-98 0 -171 38.5t-113 108.5t-58.5 153t-18.5 181q0 231 132.5 403t341.5 172 q147 0 239 -41v-751q0 -80 42 -128t118 -48q94 0 161.5 50t102.5 137t49.5 180t14.5 202q0 344 -199 552t-537 208q-367 0 -599 -256t-232 -633q0 -381 198.5 -626.5t553.5 -245.5q276 0 440 104h14v-96q-182 -97 -454 -97q-401 0 -633 266.5t-232 694.5zM680 465 q0 -170 61.5 -281.5t194.5 -111.5q63 0 134 35.5t114 85.5v735q-57 25 -144 24q-162 0 -261 -147.5t-99 -339.5z" />
<glyph unicode="A" horiz-adv-x="1144" d="M8 0v16l504 1457h129l496 -1457v-16h-113l-152 449h-610l-149 -449h-105zM295 545h545l-273 807z" />
<glyph unicode="B" horiz-adv-x="1175" d="M193 0v1473h360q424 0 424 -345q0 -100 -54.5 -194t-146.5 -141q135 -33 219 -129.5t84 -255.5q0 -182 -128 -295t-318 -113h-440zM303 96h313q160 0 256.5 80t96.5 232q0 162 -103.5 237.5t-281.5 75.5h-281v-625zM303 815h385q176 106 176 313q0 248 -297 248h-264 v-561z" />
<glyph unicode="C" horiz-adv-x="1128" d="M80 735q0 317 179 535.5t476 218.5q176 0 305 -66v-88h-16q-141 66 -297 66q-254 0 -394 -183.5t-140 -465.5q0 -299 136 -489.5t398 -190.5q172 0 322 88h16v-97q-176 -79 -360 -79q-293 0 -459 215t-166 536z" />
<glyph unicode="D" horiz-adv-x="1351" d="M193 0v1473h382q342 0 519.5 -181.5t177.5 -539.5q0 -344 -174.5 -548t-481.5 -204h-423zM297 96h295q297 0 432 179.5t135 492.5q0 608 -584 608h-278v-1280z" />
<glyph unicode="E" horiz-adv-x="1024" d="M193 0v1473h704v-97h-600v-561h534v-94h-534v-625h631v-96h-735z" />
<glyph unicode="F" horiz-adv-x="960" d="M193 0v1473h671v-97h-567v-561h504v-94h-504v-721h-104z" />
<glyph unicode="G" horiz-adv-x="1327" d="M80 735.5q0 323.5 191.5 538.5t504.5 215q227 0 377 -66v-88h-16q-150 66 -377 66q-258 0 -412.5 -185.5t-154.5 -463.5q0 -299 136 -489.5t398 -190.5q180 0 330 80v520h102v-568q-217 -120 -446 -120q-303 0 -468 214t-165 537.5z" />
<glyph unicode="H" horiz-adv-x="1409" d="M193 0v1473h104v-642h815v642h105v-1473h-105v735h-815v-735h-104z" />
<glyph unicode="I" horiz-adv-x="487" d="M193 0v1473h104v-1473h-104z" />
<glyph unicode="J" horiz-adv-x="487" d="M-113 -160h80q117 0 171.5 100.5t54.5 243.5v1289h104v-1280q0 -203 -81 -326t-257 -123h-72v96z" />
<glyph unicode="K" horiz-adv-x="1128" d="M193 0v1473h104v-658h102l553 658h105v-17l-578 -680l617 -760v-16h-119l-586 721h-94v-721h-104z" />
<glyph unicode="L" horiz-adv-x="897" d="M193 0v1473h104v-1377h600v-96h-704z" />
<glyph unicode="M" horiz-adv-x="1615" d="M193 0v1473h118l498 -818l496 818h110v-1473h-102v1319l-498 -823h-31l-487 807v-1303h-104z" />
<glyph unicode="N" horiz-adv-x="1439" d="M193 0v1473h110l842 -1289v1289h102v-1473h-102l-848 1300v-1300h-104z" />
<glyph unicode="O" horiz-adv-x="1359" d="M80 735q0 197 68.5 366t208 278.5t323.5 109.5q193 0 332 -106.5t203.5 -273.5t64.5 -374q0 -197 -67.5 -364.5t-208 -277t-324.5 -109.5q-188 0 -327.5 107.5t-206 275.5t-66.5 368zM193 735.5q0 -272.5 128 -468t359 -195.5t359 195.5t128 467.5q0 178 -52 325.5 t-164.5 244t-270.5 96.5q-231 0 -359 -196.5t-128 -469z" />
<glyph unicode="P" horiz-adv-x="1120" d="M193 0v1473h344q231 0 367 -113t136 -320q0 -242 -133 -368.5t-370 -126.5h-240v-545h-104zM297 641h248q203 0 297 97.5t94 301.5q0 168 -105.5 252t-285.5 84h-248v-735z" />
<glyph unicode="Q" horiz-adv-x="1359" d="M80 735q0 197 68.5 366t208 278.5t323.5 109.5q193 0 332 -106.5t203.5 -273.5t64.5 -374q0 -272 -131 -483t-356 -256v-4l294 -361v-16h-143l-264 369q-188 0 -327.5 107.5t-206 275.5t-66.5 368zM193 735.5q0 -272.5 128 -468t359 -195.5t359 195.5t128 467.5 q0 178 -52 325.5t-164.5 244t-270.5 96.5q-231 0 -359 -196.5t-128 -469z" />
<glyph unicode="R" horiz-adv-x="1167" d="M193 0v1473h360q471 0 471 -386q0 -266 -272 -415l352 -656v-16h-113l-336 641h-358v-641h-104zM297 735h408q215 127 215 336q0 164 -88.5 234.5t-264.5 70.5h-270v-641z" />
<glyph unicode="S" horiz-adv-x="968" d="M96 41v102h17q113 -71 298 -71h5q166 0 267 77.5t101 227.5q0 203 -239 303l-201 88q-115 49 -177.5 140t-62.5 212q0 172 124 270.5t309 98.5q160 0 278 -49v-97h-14q-121 57 -281 58q-143 0 -227 -70.5t-84 -210.5q0 -100 47 -163.5t152 -108.5l192 -88 q289 -127 289 -369q0 -190 -130 -298.5t-343 -108.5q-197 0 -320 57z" />
<glyph unicode="T" horiz-adv-x="1040" d="M0 1376v97h1040v-97h-473v-1376h-102v1376h-465z" />
<glyph unicode="U" horiz-adv-x="1376" d="M193 520v953h104v-928q0 -225 96 -349t295 -124q195 0 293 122.5t98 350.5v928h105v-953q0 -248 -134 -392t-378 -144q-233 0 -356 145t-123 391z" />
<glyph unicode="V" horiz-adv-x="1112" d="M8 1456v17h105l446 -1377l449 1377h96v-17l-479 -1456h-146z" />
<glyph unicode="W" horiz-adv-x="1751" d="M8 1456v17h105l440 -1377l281 957l-121 403v17h102l418 -1377l416 1377h96v-17l-449 -1456h-143l-266 883l-279 -883h-137z" />
<glyph unicode="X" horiz-adv-x="1079" d="M0 0v16l477 738l-452 702v17h110l406 -625l403 625h105v-17l-453 -696l483 -744v-16h-110l-432 666l-433 -666h-104z" />
<glyph unicode="Y" horiz-adv-x="983" d="M0 1456v17h113l383 -777l385 777h96v-17l-432 -872v-584h-105v567z" />
<glyph unicode="Z" horiz-adv-x="999" d="M33 0v33l770 1343h-740v97h889v-33l-772 -1344h789v-96h-936z" />
<glyph unicode="[" horiz-adv-x="520" d="M129 -256v1729h328v-89h-226v-1552h226v-88h-328z" />
<glyph unicode="\" horiz-adv-x="952" d="M63 1448v25h89l737 -1448v-25h-88z" />
<glyph unicode="]" horiz-adv-x="520" d="M63 -168h226v1552h-226v89h328v-1729h-328v88z" />
<glyph unicode="^" d="M96 223v17l479 880h66l479 -880v-17h-80l-432 809l-432 -809h-80z" />
<glyph unicode="_" horiz-adv-x="1224" d="M0 -88h1217v-64h-1217v64z" />
<glyph unicode="`" horiz-adv-x="1056" d="M143 1448v25h129l303 -297v-23h-79z" />
<glyph unicode="a" horiz-adv-x="991" d="M88 272.5q0 141.5 117 222t282 80.5h201v185q0 98 -52 141t-171 43q-152 0 -272 -72h-17v97q129 71 291 71h4q254 0 322 -159v-697q0 -55 16 -79.5t72 -24.5h71v-72q-47 -24 -107 -24h-5q-49 0 -88 25.5t-52 70.5h-20q-45 -39 -121.5 -67.5t-150.5 -28.5 q-147 0 -233.5 73.5t-86.5 215zM193 272q0 -102 65.5 -151t173.5 -49q61 0 133 28.5t123 69.5v317h-209q-123 0 -204.5 -54.5t-81.5 -160.5z" />
<glyph unicode="b" horiz-adv-x="1015" d="M160 0v1511l80 25h24v-592h8q115 80 256 80q190 0 307 -130t117 -335q0 -244 -141 -401.5t-395 -157.5h-256zM264 96h176q186 0 297 125t111 316q0 182 -89 286.5t-255 104.5q-121 0 -240 -74v-758z" />
<glyph unicode="c" horiz-adv-x="897" d="M72 528q0 231 146.5 371.5t356.5 140.5q133 0 226 -41v-96h-17q-80 41 -209 41q-180 0 -289.5 -112.5t-109.5 -303.5q0 -211 96.5 -329.5t286.5 -118.5q123 0 242 63h14v-96q-115 -63 -262 -63q-231 0 -356 144t-125 400z" />
<glyph unicode="d" horiz-adv-x="1015" d="M63 471q0 240 137.5 396.5t366.5 156.5q115 0 176 -33h9v520l79 25h25v-1528l-80 -24h-24v79h-9q-103 -79 -252 -79h-4q-195 0 -309.5 137t-114.5 350zM168 471q0 -182 89 -286.5t255 -104.5q125 0 240 74v751q-88 23 -199 23q-180 0 -282.5 -130t-102.5 -327z" />
<glyph unicode="e" horiz-adv-x="968" d="M72 512q0 225 126 376.5t322 151.5q158 0 255 -87t97 -240q0 -63 -16 -146l-680 -22v-17q0 -211 95.5 -329.5t281.5 -118.5q121 0 240 63h16v-88q-125 -71 -289 -71q-211 0 -329.5 148.5t-118.5 379.5zM193 633l575 22v50q0 117 -65.5 178t-182.5 61q-131 0 -217.5 -84 t-109.5 -227z" />
<glyph unicode="f" horiz-adv-x="583" d="M63 911v97h160v137q0 184 110.5 287.5t299.5 103.5h80v-96h-113q-135 0 -203.5 -81t-68.5 -222v-129h256v-97h-256v-911h-105v911h-160z" />
<glyph unicode="g" horiz-adv-x="968" d="M72 -193q0 98 79.5 163t184.5 93v5q-72 47 -72 125q0 70 105 135v6q-111 33 -179.5 125t-68.5 213q0 154 102.5 253t247.5 99q111 0 199 -55h2l217 39h80v-105h-228q82 -92 82 -231q0 -145 -101 -249t-251 -104h-18q-84 -51 -84 -104q0 -86 159 -102l160 -17 q231 -27 232 -200q0 -162 -143.5 -253.5t-327.5 -91.5q-156 0 -266.5 63.5t-110.5 192.5zM176 -184q0 -92 87 -134t202 -42q141 0 245.5 61t104.5 170q0 113 -160 129l-159 16q-33 2 -72 13l-16 -4q-232 -68 -232 -209zM223 672q0 -115 67.5 -185.5t180.5 -70.5 q115 0 182.5 68.5t67.5 187.5q0 115 -67.5 185.5t-182.5 70.5t-181.5 -68.5t-66.5 -187.5z" />
<glyph unicode="h" horiz-adv-x="1095" d="M160 0v1509l78 27h26v-616h8q129 104 295 104q221 0 314 -160q47 -84 47 -248v-616h-105v584q0 168 -47 239q-70 104 -223 105q-156 0 -289 -99v-829h-104z" />
<glyph unicode="i" horiz-adv-x="423" d="M135 1439.5q0 96.5 74 96.5q72 0 72 -96.5t-72 -96.5q-74 0 -74 96.5zM160 0v1016l80 24h24v-1040h-104z" />
<glyph unicode="j" horiz-adv-x="432" d="M-135 -352h135q86 0 127 59.5t41 157.5v1151l80 24h24v-1136q1 -353 -288 -353h-119v97zM143 1439.5q0 96.5 72 96.5q74 0 74 -96.5t-74 -96.5q-72 0 -72 96.5z" />
<glyph unicode="k" horiz-adv-x="872" d="M160 0v1511l80 25h24v-944h55l394 416h110v-17l-407 -416l424 -559v-16h-113l-383 496h-80v-496h-104z" />
<glyph unicode="l" horiz-adv-x="423" d="M160 0v1511l80 25h24v-1536h-104z" />
<glyph unicode="m" horiz-adv-x="1712" d="M160 0v1014l78 26h26v-120h8q129 104 281 104q209 0 301 -143h10q166 143 328 143q213 0 303 -160q41 -70 41 -248v-616h-104v584q0 180 -39 239q-70 104 -217 105q-135 0 -279 -121v-807h-104v584q0 66 -1 98.5t-11.5 72.5t-28.5 68q-66 104 -215 105q-154 0 -273 -99 v-829h-104z" />
<glyph unicode="n" horiz-adv-x="1095" d="M160 0v1014l78 26h26v-120h8q129 104 295 104q221 0 314 -160q47 -84 47 -248v-616h-105v584q0 168 -47 239q-70 104 -223 105q-156 0 -289 -99v-829h-104z" />
<glyph unicode="o" horiz-adv-x="1056" d="M72 512q0 225 128 376.5t328 151.5q219 0 337 -145t118 -383q0 -223 -125 -375.5t-330 -152.5q-209 0 -332.5 151.5t-123.5 376.5zM176 512q0 -178 95 -305t257 -127q168 0 260.5 122t92.5 310q0 205 -92.5 318.5t-260.5 113.5q-166 0 -259 -124t-93 -308z" />
<glyph unicode="p" horiz-adv-x="1015" d="M160 -449v1465l80 24h24v-96h8q115 80 256 80q190 0 307 -130t117 -341q0 -246 -137 -407.5t-366 -161.5h-7q-117 0 -161 32h-17v-465h-104zM264 96q111 -16 176 -16q193 0 300.5 125t107.5 323q0 188 -89 294t-255 106q-125 0 -240 -74v-758z" />
<glyph unicode="q" horiz-adv-x="1015" d="M63 457q0 244 140.5 397.5t396.5 153.5h256v-1457h-104v512h-9q-114 -79 -253 -79h-3q-193 0 -308.5 129t-115.5 344zM168 471q0 -186 89 -288.5t255 -102.5q125 0 240 74v757h-177q-193 0 -300 -122.5t-107 -317.5z" />
<glyph unicode="r" horiz-adv-x="608" d="M160 0v1016l80 24h24v-143h8q39 61 106.5 94t133.5 33q57 0 96 -16v-97h-112q-145 0 -232 -108v-803h-104z" />
<glyph unicode="s" horiz-adv-x="759" d="M55 41v102h17q131 -63 272 -63q102 0 175 52t73 149q0 76 -45 117.5t-139 66.5l-127 31q-100 25 -159 92t-59 172q0 131 102.5 205.5t250.5 74.5q152 0 225 -49v-94h-16q-88 47 -226 47q-98 0 -164.5 -47t-66.5 -129q0 -139 143 -176l154 -39q231 -61 231 -264 q0 -150 -105.5 -227.5t-271.5 -77.5q-135 0 -264 57z" />
<glyph unicode="t" horiz-adv-x="641" d="M41 911v97h168v247l80 25h22v-272h273v-97h-273v-680q0 -151 127 -151h2q80 0 152 49h16v-96q-61 -49 -184 -49q-98 0 -156.5 53t-58.5 147v727h-168z" />
<glyph unicode="u" horiz-adv-x="1095" d="M168 391v625l80 24h24v-616q0 -168 47 -240q72 -104 225.5 -104t286.5 98v838l80 24h25v-1030l-78 -26h-27v96h-8q-133 -96 -295 -96q-219 0 -313 159q-47 86 -47 248z" />
<glyph unicode="v" horiz-adv-x="792" d="M0 991v17h104l287 -815l305 815h97v-17l-385 -991l-23 -16h-25z" />
<glyph unicode="w" horiz-adv-x="1343" d="M0 991v17h104l287 -824l244 570l-82 237v17h102l281 -815l319 815h88v-17l-391 -999l-24 -8h-25l-223 643l-281 -635l-22 -8h-25z" />
<glyph unicode="x" horiz-adv-x="880" d="M33 0v16l346 488l-346 487v17h110l301 -422l283 422h113v-17l-342 -481l350 -494v-16h-113l-303 428l-289 -428h-110z" />
<glyph unicode="y" horiz-adv-x="856" d="M47 991v17h105l297 -815l294 815h97v-17l-543 -1440h-104v17l198 487z" />
<glyph unicode="z" horiz-adv-x="792" d="M33 0v63l573 848h-543v97h680v-56l-575 -856h584v-96h-719z" />
<glyph unicode="{" horiz-adv-x="784" d="M63 633v80q156 6 206 60t50 163v217q0 160 86.5 240t235.5 80h80v-89h-113q-88 0 -136 -53t-48 -145v-225q0 -121 -46 -188.5t-155 -100.5q109 -31 155 -98.5t46 -188.5v-307q0 -127 42 -186.5t142 -59.5h113v-88h-80q-322 0 -322 319v345q0 111 -50 165t-206 60z" />
<glyph unicode="|" horiz-adv-x="559" d="M248 -449v2048h63v-2048h-63z" />
<glyph unicode="}" horiz-adv-x="784" d="M63 -168h113q98 0 141 59.5t43 186.5v307q0 121 46.5 188.5t152.5 98.5q-106 33 -152.5 100.5t-46.5 188.5v225q0 92 -48 145t-136 53h-113v89h80q150 0 236 -80t86 -240v-217q0 -109 50 -163t206 -60v-80q-156 -6 -206 -60.5t-50 -164.5v-345q0 -319 -322 -319h-80v88z " />
<glyph unicode="~" d="M129 567v58q33 59 96.5 101t143.5 42q100 0 253.5 -96.5t225.5 -96.5q137 0 223 138h16v-58q-33 -59 -96 -101t-143 -42q-82 0 -170 48t-168 96.5t-141 48.5q-135 0 -226 -138h-14z" />
<glyph unicode="&#xa1;" horiz-adv-x="512" d="M168 1401q0 35 26.5 61.5t61.5 26.5t61.5 -26.5t26.5 -61.5q0 -37 -26.5 -62.5t-61.5 -25.5t-61.5 25.5t-26.5 62.5zM193 0v449l38 575h50l38 -575v-449h-126z" />
<glyph unicode="&#xa2;" d="M113 735q0 297 166.5 511t441.5 239v180h102v-176q143 -6 264 -66v-88h-16q-141 66 -295 66q-256 0 -404.5 -184.5t-148.5 -464.5q0 -295 143.5 -487.5t409.5 -192.5q170 0 320 88h16v-97q-145 -66 -303 -77v-234h-104v234q-274 18 -433 231t-159 518z" />
<glyph unicode="&#xa3;" d="M129 0v96h223v625h-223v94h223v264q0 184 109.5 289t298.5 105h264v-97h-297q-133 0 -201.5 -82t-68.5 -223v-256h374v-94h-374v-625h630v-96h-958z" />
<glyph unicode="&#xa4;" d="M223 424l101 100q-59 84 -60 211q0 123 62 211l-103 103l80 79l103 -102q90 61 210 61q123 0 211 -59l101 100l80 -79l-99 -99q68 -86 68 -215q0 -125 -66 -217q14 -14 39 -39.5t39.5 -39t16.5 -15.5q-78 -78 -78 -80l-97 96q-92 -63 -215 -63q-125 0 -215 65l-98 -98z M377 735q0 -119 67.5 -191.5t172 -72.5t176 71.5t71.5 192.5t-70.5 188.5t-177 67.5t-173 -66.5t-66.5 -189.5z" />
<glyph unicode="&#xa5;" d="M129 1456v17h111l385 -777l383 777h96v-17l-432 -872h352v-97h-352v-168h352v-96h-352v-223h-105v223h-344v96h344v168h-344v97h336z" />
<glyph unicode="&#xa6;" horiz-adv-x="559" d="M248 319h63v-768h-63v768zM248 831v768h63v-768h-63z" />
<glyph unicode="&#xa7;" horiz-adv-x="1015" d="M96 592q0 82 56 151h71q-23 -35 -22 -102q0 -72 28.5 -114t114.5 -103l256 -184q111 -80 163 -163t52 -190q0 -158 -108.5 -247t-274.5 -89q-158 0 -280 89v120h16q119 -104 281 -104q121 0 184 63.5t63 167.5q0 84 -36.5 140.5t-131.5 124.5l-256 184q-53 39 -83.5 65.5 t-61.5 78.5t-31 112zM193 1153q0 152 107.5 244t266.5 92q170 0 289 -74v-119h-16q-123 88 -273 88q-117 0 -186.5 -60t-69.5 -171q0 -86 40 -143.5t128 -120.5l248 -176q51 -37 68.5 -50.5t55.5 -49t53.5 -73.5t15.5 -83q-1 -101 -48 -160h-71q14 39 14 94 q0 57 -25.5 102.5t-45 61.5t-80.5 61l-256 185q-215 154 -215 352z" />
<glyph unicode="&#xa8;" horiz-adv-x="1056" d="M256 1313q0 37 22.5 62.5t57.5 25.5t57.5 -25.5t22.5 -62.5t-21.5 -62.5t-58.5 -25.5q-35 0 -57.5 25.5t-22.5 62.5zM641 1313q0 37 22.5 62.5t57.5 25.5t57.5 -25.5t22.5 -62.5t-22.5 -62.5t-57.5 -25.5q-37 0 -58.5 25.5t-21.5 62.5z" />
<glyph unicode="&#xa9;" horiz-adv-x="1728" d="M96 735q0 330 218 542t550 212t550 -212t218 -542q0 -328 -218 -539.5t-550 -211.5t-550 212t-218 539zM201 735q0 -285 184 -474t479 -189t479.5 189.5t184.5 473.5q0 287 -184.5 476.5t-479.5 189.5t-479 -189.5t-184 -476.5zM496 735q0 180 119.5 299t295.5 119 q117 0 201 -33v-88q-84 33 -201 33q-141 0 -226 -92t-85 -238q0 -152 82 -239.5t229 -87.5q106 0 201 32v-88q-95 -33 -201 -33q-186 0 -300.5 113t-114.5 303z" />
<glyph unicode="&#xaa;" horiz-adv-x="759" d="M55 889q0 125 105.5 186.5t263.5 61.5h88v118q0 82 -44 114t-149 32q-106 0 -190 -49h-16v88q78 49 215 49q211 0 280 -121v-545q0 -51 17.5 -65.5t62.5 -14.5h55v-63q-35 -25 -102 -25q-92 0 -117 72h-4q-96 -72 -209 -72q-119 0 -187.5 58.5t-68.5 175.5zM152 889 q0 -72 42 -113t117 -41q119 0 201 66v256h-88q-272 0 -272 -168z" />
<glyph unicode="&#xab;" horiz-adv-x="1120" d="M63 496v159l465 322h17v-105l-410 -297l410 -294v-105h-17zM545 496v159l463 322h16v-105l-408 -297l408 -294v-105h-16z" />
<glyph unicode="&#xac;" d="M129 672v63h958v-526h-63v463h-895z" />
<glyph unicode="&#xad;" horiz-adv-x="831" d="M129 647v113h576v-113h-576z" />
<glyph unicode="&#xae;" horiz-adv-x="1728" d="M96 735q0 330 218 542t550 212t550 -212t218 -542q0 -328 -218 -539.5t-550 -211.5t-550 212t-218 539zM201 735q0 -285 184 -474t479 -189t479.5 189.5t184.5 473.5q0 287 -184.5 476.5t-479.5 189.5t-479 -189.5t-184 -476.5zM600 319v834h195q334 0 333 -256 q0 -164 -159 -242l184 -319v-17h-113l-159 297h-176v-297h-105zM705 705h143q76 0 126 50t50 142q0 80 -50 124t-126 44h-143v-360z" />
<glyph unicode="&#xaf;" horiz-adv-x="1056" d="M231 1239v82h592v-82h-592z" />
<glyph unicode="&#xb0;" horiz-adv-x="815" d="M55 1071q0 176 91.5 297t261.5 121q174 0 263 -120t89 -298t-90 -297t-262 -119t-262.5 119t-90.5 297zM160 1071.5q0 -145.5 59.5 -237t188.5 -91.5t188 91.5t59 237t-59 237.5t-188 92t-188.5 -92t-59.5 -237.5z" />
<glyph unicode="&#xb1;" d="M129 0h958v-63h-958v63zM129 672v63h446v465h66v-465h446v-63h-446v-463h-66v463h-446z" />
<glyph unicode="&#xb2;" horiz-adv-x="815" d="M80 672v63l231 162q180 123 234.5 185.5t54.5 150.5q0 74 -51 121t-150 47q-129 0 -264 -80h-14v88q131 80 278.5 80t226.5 -69.5t79 -186.5q0 -51 -19.5 -98.5t-39 -78t-76 -76.5t-85 -65.5t-108.5 -74.5l-121 -80h487v-88h-663z" />
<glyph unicode="&#xb3;" horiz-adv-x="815" d="M80 705v88h16q139 -57 281 -58q256 0 256 154q0 68 -66.5 105.5t-167.5 37.5h-143v72l121 16q94 12 158.5 54.5t64.5 105.5q0 76 -57.5 102.5t-165.5 26.5q-127 0 -242 -57h-14v80q129 57 256 57q319 0 319 -201q0 -147 -168 -201q92 -12 145.5 -68t53.5 -130 q0 -115 -98 -174.5t-252 -59.5q-176 0 -297 50z" />
<glyph unicode="&#xb4;" horiz-adv-x="1056" d="M487 1153v23l306 297h127v-25l-353 -295h-80z" />
<glyph unicode="&#xb5;" horiz-adv-x="1095" d="M160 -449v1465l80 24h24v-637q4 -131 55 -210q72 -104 226 -105q150 0 286 105v823l80 24h25v-1030l-78 -26h-27v96h-16q-133 -96 -287 -96q-172 0 -264 96v-529h-104z" />
<glyph unicode="&#xb6;" horiz-adv-x="1472" d="M63 897.5q0 276.5 163 426t415 149.5h231v-1922h-104v768h-127q-252 0 -415 151t-163 427.5zM1167 -449v1922h105v-1922h-105z" />
<glyph unicode="&#xb7;" horiz-adv-x="512" d="M168 823q0 37 26.5 62.5t61.5 25.5t61.5 -25.5t26.5 -62.5q0 -35 -26.5 -61.5t-61.5 -26.5t-61.5 26.5t-26.5 61.5z" />
<glyph unicode="&#xb8;" horiz-adv-x="1103" d="M352 -344h17q88 -33 143 -33q121 0 121 88q0 20 -5 35.5t-21.5 29t-25 17.5t-36 16.5t-33.5 14.5l-55 24v17l88 102h80l-72 -88l55 -22q113 -49 113 -146q0 -76 -55.5 -118t-153.5 -42q-78 0 -160 41v64z" />
<glyph unicode="&#xb9;" horiz-adv-x="815" d="M113 1225v96l352 152h63v-801h-104v680l-295 -127h-16z" />
<glyph unicode="&#xba;" horiz-adv-x="784" d="M55 1071q0 193 94.5 305.5t241.5 112.5q154 0 245 -111.5t91 -306t-92 -305.5t-243.5 -111t-244 111t-92.5 305zM152 1071q0 -152 63.5 -244t176 -92t177 92.5t64.5 243.5q0 154 -64.5 246t-177 92t-176 -92t-63.5 -246z" />
<glyph unicode="&#xbb;" horiz-adv-x="1120" d="M96 176v105l408 294l-408 297v105h17l462 -322v-159l-462 -320h-17zM575 176v105l408 294l-408 297v105h17l465 -322v-159l-465 -320h-17z" />
<glyph unicode="&#xbc;" horiz-adv-x="1679" d="M113 1225v96l352 152h63v-801h-104v680l-295 -127h-16zM391 0v25l826 1448h71v-25l-823 -1448h-74zM928 193v71l473 551h72v-534h159v-88h-159v-193h-97v193h-448zM1049 281h327v383z" />
<glyph unicode="&#xbd;" horiz-adv-x="1679" d="M113 1225v96l352 152h63v-801h-104v680l-295 -127h-16zM391 0v25l826 1448h71v-25l-823 -1448h-74zM944 0v63l232 160q180 125 234 186.5t54 149.5q0 76 -51 122t-149 46q-137 0 -265 -80h-16v88q127 80 281 80q147 0 226 -68.5t79 -187.5q0 -51 -19.5 -97t-40 -77 t-76 -76t-85 -66.5t-109.5 -74.5l-119 -80h488v-88h-664z" />
<glyph unicode="&#xbe;" horiz-adv-x="1679" d="M80 705v88h16q139 -57 281 -58q256 0 256 154q0 68 -66.5 105.5t-167.5 37.5h-143v72l121 16q94 12 158.5 54.5t64.5 105.5q0 76 -57.5 102.5t-165.5 26.5q-127 0 -242 -57h-14v80q129 57 256 57q319 0 319 -201q0 -147 -168 -201q92 -12 145.5 -68t53.5 -130 q0 -115 -98 -174.5t-252 -59.5q-176 0 -297 50zM391 0v25l826 1448h71v-25l-823 -1448h-74zM928 193v71l473 551h72v-534h159v-88h-159v-193h-97v193h-448zM1049 281h327v383z" />
<glyph unicode="&#xbf;" horiz-adv-x="847" d="M96 311q0 57 20.5 112.5t40 89.5t71 84t68.5 64.5t81 65.5l127 104v201h104v-176q0 -43 -10 -60.5t-53 -52.5l-113 -88q-113 -86 -168 -156.5t-55 -162.5q0 -131 69.5 -181.5t217.5 -50.5h192v-104h-209q-170 0 -276.5 79t-106.5 232zM465 1401q0 35 25.5 61.5t62.5 26.5 q35 0 61.5 -26.5t26.5 -61.5q0 -37 -26.5 -62.5t-61.5 -25.5q-37 0 -62.5 25.5t-25.5 62.5z" />
<glyph unicode="&#xc0;" horiz-adv-x="1144" d="M8 0v16l504 1457h129l496 -1457v-16h-113l-152 449h-610l-149 -449h-105zM260 1913v24h129l303 -297v-22h-80zM295 545h545l-273 807z" />
<glyph unicode="&#xc1;" horiz-adv-x="1144" d="M8 0v16l504 1457h129l496 -1457v-16h-113l-152 449h-610l-149 -449h-105zM295 545h545l-273 807zM418 1618v22l305 297h127v-24l-352 -295h-80z" />
<glyph unicode="&#xc2;" horiz-adv-x="1144" d="M8 0v16l504 1457h129l496 -1457v-16h-113l-152 449h-610l-149 -449h-105zM276 1618v22l232 297h129l231 -297v-22h-80l-217 240l-215 -240h-80zM295 545h545l-273 807z" />
<glyph unicode="&#xc3;" horiz-adv-x="1144" d="M8 0v16l504 1457h129l496 -1457v-16h-113l-152 449h-610l-149 -449h-105zM203 1618v22q4 57 12 99.5t26.5 92.5t57.5 77.5t96 27.5q61 0 113.5 -37.5t83.5 -81.5t72 -82t84 -38q35 0 57 18.5t32.5 58.5t14.5 72.5t6 89.5h82v-24q-4 -57 -12 -99t-26.5 -91.5t-57.5 -77 t-96 -27.5q-61 0 -114.5 38t-83.5 82t-72 82t-83 38q-35 0 -56.5 -18.5t-32.5 -59.5t-15 -72t-8 -90h-80zM295 545h545l-273 807z" />
<glyph unicode="&#xc4;" horiz-adv-x="1144" d="M8 0v16l504 1457h129l496 -1457v-16h-113l-152 449h-610l-149 -449h-105zM295 545h545l-273 807zM299 1778q0 37 22.5 62.5t57.5 25.5t57.5 -25.5t22.5 -62.5t-21.5 -62.5t-58.5 -25.5q-35 0 -57.5 25.5t-22.5 62.5zM684 1778q0 37 22.5 62.5t57.5 25.5t57.5 -25.5 t22.5 -62.5t-22.5 -62.5t-57.5 -25.5q-37 0 -58.5 25.5t-21.5 62.5z" />
<glyph unicode="&#xc5;" horiz-adv-x="1144" d="M8 0v16l504 1457h129l496 -1457v-16h-113l-152 449h-610l-149 -449h-105zM295 545h545l-273 807zM315 1817q0 86 72 143t184.5 57t184 -57t71.5 -143t-71.5 -142.5t-184 -56.5t-184.5 56.5t-72 142.5zM395 1816.5q0 -65.5 48.5 -100.5t128 -35t128 35t48.5 100.5 t-48.5 101.5t-128 36t-128 -36t-48.5 -101.5z" />
<glyph unicode="&#xc6;" horiz-adv-x="1560" d="M8 0v16l633 1457h799v-97h-568v-561h504v-94h-504v-625h601v-96h-705v449h-467l-188 -449h-105zM342 545h426v831h-74z" />
<glyph unicode="&#xc7;" horiz-adv-x="1128" d="M80 735q0 317 179 535.5t476 218.5q176 0 305 -66v-88h-16q-141 66 -297 66q-254 0 -394 -183.5t-140 -465.5q0 -299 136 -489.5t398 -190.5q172 0 322 88h16v-97q-176 -79 -360 -79q-293 0 -459 215t-166 536zM469 -344h16q88 -33 144 -33q121 0 121 88q0 20 -5.5 35.5 t-21.5 29t-24.5 17.5t-36 16.5t-33.5 14.5l-56 24v17l89 102h79l-71 -88l55 -22q113 -49 113 -146q0 -76 -55.5 -118t-153.5 -42q-78 0 -160 41v64z" />
<glyph unicode="&#xc8;" horiz-adv-x="1024" d="M193 0v1473h704v-97h-600v-561h534v-94h-534v-625h631v-96h-735zM274 1913v24h129l304 -297v-22h-80z" />
<glyph unicode="&#xc9;" horiz-adv-x="1024" d="M193 0v1473h704v-97h-600v-561h534v-94h-534v-625h631v-96h-735zM356 1618v22l306 297h126v-24l-352 -295h-80z" />
<glyph unicode="&#xca;" horiz-adv-x="1024" d="M193 0v1473h704v-97h-600v-561h534v-94h-534v-625h631v-96h-735zM236 1618v22l231 297h129l231 -297v-22h-79l-218 240l-215 -240h-79z" />
<glyph unicode="&#xcb;" horiz-adv-x="1024" d="M193 0v1473h704v-97h-600v-561h534v-94h-534v-625h631v-96h-735zM260 1778q0 37 22.5 62.5t57.5 25.5t57.5 -25.5t22.5 -62.5t-21.5 -62.5t-58.5 -25.5q-35 0 -57.5 25.5t-22.5 62.5zM645 1778q0 37 22.5 62.5t57.5 25.5t57.5 -25.5t22.5 -62.5t-22.5 -62.5t-57.5 -25.5 q-37 0 -58.5 25.5t-21.5 62.5z" />
<glyph unicode="&#xcc;" horiz-adv-x="487" d="M-16 1913v24h129l303 -297v-22h-80zM193 0v1473h104v-1473h-104z" />
<glyph unicode="&#xcd;" horiz-adv-x="487" d="M68 1618v22l305 297h127v-24l-353 -295h-79zM193 0v1473h104v-1473h-104z" />
<glyph unicode="&#xce;" horiz-adv-x="487" d="M-51 1618v22l231 297h129l232 -297v-22h-80l-217 240l-215 -240h-80zM193 0v1473h104v-1473h-104z" />
<glyph unicode="&#xcf;" horiz-adv-x="487" d="M-29 1778q0 37 22.5 62.5t57.5 25.5t57.5 -25.5t22.5 -62.5t-21.5 -62.5t-58.5 -25.5q-35 0 -57.5 25.5t-22.5 62.5zM193 0v1473h104v-1473h-104zM356 1778q0 37 22.5 62.5t57.5 25.5t57.5 -25.5t22.5 -62.5t-22.5 -62.5t-57.5 -25.5q-37 0 -58.5 25.5t-21.5 62.5z" />
<glyph unicode="&#xd0;" horiz-adv-x="1351" d="M63 727v88h130v658h382q342 0 519.5 -181.5t177.5 -539.5q0 -344 -174.5 -548t-481.5 -204h-423v727h-130zM297 96h295q297 0 432 179.5t135 492.5q0 608 -584 608h-278v-561h344v-88h-344v-631z" />
<glyph unicode="&#xd1;" horiz-adv-x="1439" d="M193 0v1473h110l842 -1289v1289h102v-1473h-102l-848 1300v-1300h-104zM373 1618v22q4 57 12 99.5t26.5 92.5t57.5 77.5t96 27.5q61 0 114.5 -37.5t83.5 -81.5t70.5 -82t84.5 -38q35 0 57 18.5t32.5 58.5t14.5 72.5t6 89.5h82v-24q-4 -57 -12 -99t-26.5 -91.5t-57.5 -77 t-96 -27.5q-61 0 -114.5 38t-83.5 82t-72 82t-83 38q-35 0 -56.5 -18.5t-32.5 -59.5t-15 -72t-8 -90h-80z" />
<glyph unicode="&#xd2;" horiz-adv-x="1359" d="M80 735q0 197 68.5 366t208 278.5t323.5 109.5q193 0 332 -106.5t203.5 -273.5t64.5 -374q0 -197 -67.5 -364.5t-208 -277t-324.5 -109.5q-188 0 -327.5 107.5t-206 275.5t-66.5 368zM193 735.5q0 -272.5 128 -468t359 -195.5t359 195.5t128 467.5q0 178 -52 325.5 t-164.5 244t-270.5 96.5q-231 0 -359 -196.5t-128 -469zM424 1913v24h129l303 -297v-22h-80z" />
<glyph unicode="&#xd3;" horiz-adv-x="1359" d="M80 735q0 197 68.5 366t208 278.5t323.5 109.5q193 0 332 -106.5t203.5 -273.5t64.5 -374q0 -197 -67.5 -364.5t-208 -277t-324.5 -109.5q-188 0 -327.5 107.5t-206 275.5t-66.5 368zM193 735.5q0 -272.5 128 -468t359 -195.5t359 195.5t128 467.5q0 178 -52 325.5 t-164.5 244t-270.5 96.5q-231 0 -359 -196.5t-128 -469zM504 1618v22l305 297h127v-24l-352 -295h-80z" />
<glyph unicode="&#xd4;" horiz-adv-x="1359" d="M80 735q0 197 68.5 366t208 278.5t323.5 109.5q193 0 332 -106.5t203.5 -273.5t64.5 -374q0 -197 -67.5 -364.5t-208 -277t-324.5 -109.5q-188 0 -327.5 107.5t-206 275.5t-66.5 368zM193 735.5q0 -272.5 128 -468t359 -195.5t359 195.5t128 467.5q0 178 -52 325.5 t-164.5 244t-270.5 96.5q-231 0 -359 -196.5t-128 -469zM385 1618v22l231 297h129l232 -297v-22h-80l-217 240l-215 -240h-80z" />
<glyph unicode="&#xd5;" horiz-adv-x="1359" d="M80 735q0 197 68.5 366t208 278.5t323.5 109.5q193 0 332 -106.5t203.5 -273.5t64.5 -374q0 -197 -67.5 -364.5t-208 -277t-324.5 -109.5q-188 0 -327.5 107.5t-206 275.5t-66.5 368zM193 735.5q0 -272.5 128 -468t359 -195.5t359 195.5t128 467.5q0 178 -52 325.5 t-164.5 244t-270.5 96.5q-231 0 -359 -196.5t-128 -469zM311 1618v22q4 57 12.5 99.5t27 92.5t57 77.5t96.5 27.5q61 0 114.5 -37.5t83 -81.5t70.5 -82t84 -38q35 0 57.5 18.5t32.5 58.5t14.5 72.5t6.5 89.5h82v-24q-4 -57 -12.5 -99t-27 -91.5t-57.5 -77t-96 -27.5 q-61 0 -114.5 38t-83 82t-71.5 82t-83 38q-35 0 -56.5 -18.5t-33 -59.5t-15.5 -72t-8 -90h-80z" />
<glyph unicode="&#xd6;" horiz-adv-x="1359" d="M80 735q0 197 68.5 366t208 278.5t323.5 109.5q193 0 332 -106.5t203.5 -273.5t64.5 -374q0 -197 -67.5 -364.5t-208 -277t-324.5 -109.5q-188 0 -327.5 107.5t-206 275.5t-66.5 368zM193 735.5q0 -272.5 128 -468t359 -195.5t359 195.5t128 467.5q0 178 -52 325.5 t-164.5 244t-270.5 96.5q-231 0 -359 -196.5t-128 -469zM408 1778q0 37 22.5 62.5t57 25.5t57 -25.5t22.5 -62.5t-21.5 -62.5t-58.5 -25.5q-35 0 -57 25.5t-22 62.5zM793 1778q0 37 22.5 62.5t57 25.5t57 -25.5t22.5 -62.5t-22.5 -62.5t-57.5 -25.5q-37 0 -58 25.5t-21 62.5 z" />
<glyph unicode="&#xd7;" d="M129 240v63l434 393l-434 391v66h14l465 -418l463 418h16v-66l-436 -391l436 -393v-63h-16l-463 415l-465 -415h-14z" />
<glyph unicode="&#xd8;" horiz-adv-x="1359" d="M72 0v16l157 201q-150 207 -149 518q0 197 68.5 366t208 278.5t323.5 109.5q244 0 405 -172l123 156h80v-17l-155 -199q147 -205 147 -522q0 -197 -67.5 -364.5t-208 -277t-324.5 -109.5q-240 0 -404 176l-124 -160h-80zM193 735q0 -256 104 -432l723 930 q-131 168 -340 168q-231 0 -359 -196.5t-128 -469.5zM340 240q131 -168 340 -168q231 0 359 195.5t128 467.5q0 252 -102 432z" />
<glyph unicode="&#xd9;" horiz-adv-x="1376" d="M193 520v953h104v-928q0 -225 96 -349t295 -124q195 0 293 122.5t98 350.5v928h105v-953q0 -248 -134 -392t-378 -144q-233 0 -356 145t-123 391zM428 1913v24h129l303 -297v-22h-80z" />
<glyph unicode="&#xda;" horiz-adv-x="1376" d="M193 520v953h104v-928q0 -225 96 -349t295 -124q195 0 293 122.5t98 350.5v928h105v-953q0 -248 -134 -392t-378 -144q-233 0 -356 145t-123 391zM530 1618v22l306 297h127v-24l-353 -295h-80z" />
<glyph unicode="&#xdb;" horiz-adv-x="1376" d="M193 520v953h104v-928q0 -225 96 -349t295 -124q195 0 293 122.5t98 350.5v928h105v-953q0 -248 -134 -392t-378 -144q-233 0 -356 145t-123 391zM393 1618v22l232 297h129l231 -297v-22h-80l-217 240l-215 -240h-80z" />
<glyph unicode="&#xdc;" horiz-adv-x="1376" d="M193 520v953h104v-928q0 -225 96 -349t295 -124q195 0 293 122.5t98 350.5v928h105v-953q0 -248 -134 -392t-378 -144q-233 0 -356 145t-123 391zM416 1778q0 37 22.5 62.5t57 25.5t57 -25.5t22.5 -62.5t-21 -62.5t-58 -25.5q-35 0 -57.5 25.5t-22.5 62.5zM801 1778 q0 37 22.5 62.5t57 25.5t57.5 -25.5t23 -62.5t-22.5 -62.5t-57.5 -25.5q-37 0 -58.5 25.5t-21.5 62.5z" />
<glyph unicode="&#xdd;" horiz-adv-x="983" d="M0 1456v17h113l383 -777l385 777h96v-17l-432 -872v-584h-105v567zM377 1618v22l305 297h127v-24l-352 -295h-80z" />
<glyph unicode="&#xde;" horiz-adv-x="1120" d="M193 0v1473h110v-273h234q238 0 375 -106.5t137 -325.5q0 -244 -132.5 -370t-379.5 -126h-234v-272h-110zM303 377h242q197 0 290 96t93 295q0 162 -104.5 245t-278.5 83h-242v-719z" />
<glyph unicode="&#xdf;" horiz-adv-x="1191" d="M63 911v97h160v120q0 172 124 290t300 118q152 0 244 -69.5t92 -202.5q0 -129 -119 -248q-18 -18 -56 -52t-57.5 -53.5t-37 -51.5t-17.5 -66q0 -63 32 -101.5t103 -75.5l113 -63q92 -53 138 -115.5t46 -156.5q0 -135 -93 -216t-234 -81q-133 0 -273 57v102h17 q131 -63 264 -63q98 0 156.5 49t58.5 143q0 119 -121 185l-94 55q-61 33 -87 49.5t-63.5 49t-52 74.5t-14.5 99q0 23 5 43.5t17.5 42t22.5 38t31.5 40t33 35.5t38 38t36.5 36q104 104 105 198q0 193 -240 193q-147 0 -230 -91t-83 -245v-1112h-105v911h-160z" />
<glyph unicode="&#xe0;" horiz-adv-x="991" d="M88 272.5q0 141.5 117 222t282 80.5h201v185q0 98 -52 141t-171 43q-152 0 -272 -72h-17v97q131 72 295 71q254 0 322 -159v-697q0 -55 16 -79.5t72 -24.5h71v-72q-49 -25 -112 -24q-49 0 -88 25.5t-52 70.5h-20q-45 -39 -121.5 -67.5t-150.5 -28.5q-147 0 -233.5 73.5 t-86.5 215zM193 272q0 -102 65.5 -151t173.5 -49q61 0 133 28.5t123 69.5v317h-209q-123 0 -204.5 -54.5t-81.5 -160.5zM248 1448v25h129l303 -297v-23h-80z" />
<glyph unicode="&#xe1;" horiz-adv-x="991" d="M88 272.5q0 141.5 117 222t282 80.5h201v185q0 98 -52 141t-171 43q-152 0 -272 -72h-17v97q131 72 295 71q254 0 322 -159v-697q0 -55 16 -79.5t72 -24.5h71v-72q-49 -25 -112 -24q-49 0 -88 25.5t-52 70.5h-20q-45 -39 -121.5 -67.5t-150.5 -28.5q-147 0 -233.5 73.5 t-86.5 215zM193 272q0 -102 65.5 -151t173.5 -49q61 0 133 28.5t123 69.5v317h-209q-123 0 -204.5 -54.5t-81.5 -160.5zM299 1153v23l305 297h127v-25l-352 -295h-80z" />
<glyph unicode="&#xe2;" horiz-adv-x="991" d="M88 272.5q0 141.5 117 222t282 80.5h201v185q0 98 -52 141t-171 43q-152 0 -272 -72h-17v97q131 72 295 71q254 0 322 -159v-697q0 -55 16 -79.5t72 -24.5h71v-72q-49 -25 -112 -24q-49 0 -88 25.5t-52 70.5h-20q-45 -39 -121.5 -67.5t-150.5 -28.5q-147 0 -233.5 73.5 t-86.5 215zM193 272q0 -102 65.5 -151t173.5 -49q61 0 133 28.5t123 69.5v317h-209q-123 0 -204.5 -54.5t-81.5 -160.5zM201 1153v23l231 297h129l232 -297v-23h-80l-217 240l-215 -240h-80z" />
<glyph unicode="&#xe3;" horiz-adv-x="991" d="M88 272.5q0 141.5 117 222t282 80.5h201v185q0 98 -52 141t-171 43q-152 0 -272 -72h-17v97q131 72 295 71q254 0 322 -159v-697q0 -55 16 -79.5t72 -24.5h71v-72q-49 -25 -112 -24q-49 0 -88 25.5t-52 70.5h-20q-45 -39 -121.5 -67.5t-150.5 -28.5q-147 0 -233.5 73.5 t-86.5 215zM127 1153v23q4 57 12 99t26.5 92t57.5 78t96 28q61 0 114.5 -38t83.5 -82t71 -82t84 -38q35 0 57.5 18.5t32.5 58.5t14 72.5t6 90.5h82v-25q-4 -57 -12 -99t-26.5 -91.5t-57.5 -77t-96 -27.5q-61 0 -114.5 38t-83.5 82t-72 82t-83 38q-35 0 -56 -18.5 t-32.5 -59.5t-15.5 -72t-8 -90h-80zM193 272q0 -102 65.5 -151t173.5 -49q61 0 133 28.5t123 69.5v317h-209q-123 0 -204.5 -54.5t-81.5 -160.5z" />
<glyph unicode="&#xe4;" horiz-adv-x="991" d="M88 272.5q0 141.5 117 222t282 80.5h201v185q0 98 -52 141t-171 43q-152 0 -272 -72h-17v97q131 72 295 71q254 0 322 -159v-697q0 -55 16 -79.5t72 -24.5h71v-72q-49 -25 -112 -24q-49 0 -88 25.5t-52 70.5h-20q-45 -39 -121.5 -67.5t-150.5 -28.5q-147 0 -233.5 73.5 t-86.5 215zM193 272q0 -102 65.5 -151t173.5 -49q61 0 133 28.5t123 69.5v317h-209q-123 0 -204.5 -54.5t-81.5 -160.5zM223 1313q0 37 22.5 62.5t57.5 25.5t57.5 -25.5t22.5 -62.5t-21.5 -62.5t-58.5 -25.5q-35 0 -57.5 25.5t-22.5 62.5zM608 1313q0 37 22.5 62.5 t57.5 25.5t57.5 -25.5t22.5 -62.5t-22.5 -62.5t-57.5 -25.5q-37 0 -58.5 25.5t-21.5 62.5z" />
<glyph unicode="&#xe5;" horiz-adv-x="991" d="M88 272.5q0 141.5 117 222t282 80.5h201v185q0 98 -52 141t-171 43q-152 0 -272 -72h-17v97q131 72 295 71q254 0 322 -159v-697q0 -55 16 -79.5t72 -24.5h71v-72q-49 -25 -112 -24q-49 0 -88 25.5t-52 70.5h-20q-45 -39 -121.5 -67.5t-150.5 -28.5q-147 0 -233.5 73.5 t-86.5 215zM193 272q0 -102 65.5 -151t173.5 -49q61 0 133 28.5t123 69.5v317h-209q-123 0 -204.5 -54.5t-81.5 -160.5zM240 1352q0 86 71.5 143t184 57t184.5 -57t72 -143t-72 -142.5t-184.5 -56.5t-184 56.5t-71.5 142.5zM319 1351.5q0 -65.5 48.5 -100t128 -34.5 t128 34.5t48.5 100t-48.5 101.5t-128 36t-128 -36t-48.5 -101.5z" />
<glyph unicode="&#xe6;" horiz-adv-x="1591" d="M96 281q0 150 125 226.5t299 76.5h168v168q0 104 -55 148t-168 44q-133 0 -264 -63h-17v96q117 63 287 63q242 0 322 -184v-2q133 186 352 186q158 0 254 -87t96 -240q0 -74 -14 -146l-680 -22v-17q0 -203 91 -325.5t275 -122.5q123 0 242 63h14l9 -96q-111 -63 -287 -63 q-223 0 -346 166q-111 -90 -195 -128t-196 -38q-145 0 -228.5 76.5t-83.5 220.5zM201 281q0 -100 62.5 -150.5t168.5 -50.5q143 0 320 141q-62 121 -64 266h-201q-123 0 -204.5 -52t-81.5 -154zM809 633l584 22v50q0 113 -66.5 176t-181.5 63q-131 0 -219 -80.5t-117 -230.5 z" />
<glyph unicode="&#xe7;" horiz-adv-x="897" d="M72 528q0 231 146.5 371.5t356.5 140.5q133 0 226 -41v-96h-17q-80 41 -209 41q-180 0 -289.5 -112.5t-109.5 -303.5q0 -211 96.5 -329.5t286.5 -118.5q123 0 242 63h14v-96q-115 -63 -262 -63q-231 0 -356 144t-125 400zM305 -344h17q88 -33 143 -33q121 0 121 88 q0 20 -5.5 35.5t-21.5 29t-24.5 17.5t-36 16.5t-33.5 14.5l-55 24v17l88 102h80l-72 -88l55 -22q113 -49 113 -146q0 -76 -55.5 -118t-153.5 -42q-78 0 -160 41v64z" />
<glyph unicode="&#xe8;" horiz-adv-x="968" d="M72 512q0 225 126 376.5t322 151.5q158 0 255 -87t97 -240q0 -63 -16 -146l-680 -22v-17q0 -211 95.5 -329.5t281.5 -118.5q121 0 240 63h16v-88q-125 -71 -289 -71q-211 0 -329.5 148.5t-118.5 379.5zM193 633l575 22v50q0 117 -65.5 178t-182.5 61q-131 0 -217.5 -84 t-109.5 -227zM227 1448v25h129l303 -297v-23h-79z" />
<glyph unicode="&#xe9;" horiz-adv-x="968" d="M72 512q0 225 126 376.5t322 151.5q158 0 255 -87t97 -240q0 -63 -16 -146l-680 -22v-17q0 -211 95.5 -329.5t281.5 -118.5q121 0 240 63h16v-88q-125 -71 -289 -71q-211 0 -329.5 148.5t-118.5 379.5zM193 633l575 22v50q0 117 -65.5 178t-182.5 61q-131 0 -217.5 -84 t-109.5 -227zM348 1153v23l305 297h127v-25l-352 -295h-80z" />
<glyph unicode="&#xea;" horiz-adv-x="968" d="M72 512q0 225 126 376.5t322 151.5q158 0 255 -87t97 -240q0 -63 -16 -146l-680 -22v-17q0 -211 95.5 -329.5t281.5 -118.5q121 0 240 63h16v-88q-125 -71 -289 -71q-211 0 -329.5 148.5t-118.5 379.5zM193 633l575 22v50q0 117 -65.5 178t-182.5 61q-131 0 -217.5 -84 t-109.5 -227zM209 1153v23l231 297h129l232 -297v-23h-80l-217 240l-215 -240h-80z" />
<glyph unicode="&#xeb;" horiz-adv-x="968" d="M72 512q0 225 126 376.5t322 151.5q158 0 255 -87t97 -240q0 -63 -16 -146l-680 -22v-17q0 -211 95.5 -329.5t281.5 -118.5q121 0 240 63h16v-88q-125 -71 -289 -71q-211 0 -329.5 148.5t-118.5 379.5zM193 633l575 22v50q0 117 -65.5 178t-182.5 61q-131 0 -217.5 -84 t-109.5 -227zM231 1313q0 37 22.5 62.5t57.5 25.5t57.5 -25.5t22.5 -62.5t-21.5 -62.5t-58.5 -25.5q-35 0 -57.5 25.5t-22.5 62.5zM616 1313q0 37 23 62.5t57.5 25.5t57 -25.5t22.5 -62.5t-22.5 -62.5t-57.5 -25.5q-37 0 -58.5 25.5t-21.5 62.5z" />
<glyph unicode="&#xec;" horiz-adv-x="423" d="M-45 1448v25h129l303 -297v-23h-80zM160 0v1016l80 24h24v-1040h-104z" />
<glyph unicode="&#xed;" horiz-adv-x="423" d="M16 1153v23l306 297h127v-25l-353 -295h-80zM160 0v1016l80 24h24v-1040h-104z" />
<glyph unicode="&#xee;" horiz-adv-x="423" d="M-84 1153v23l231 297h129l232 -297v-23h-80l-217 240l-215 -240h-80zM160 0v1016l80 24h24v-1040h-104z" />
<glyph unicode="&#xef;" horiz-adv-x="423" d="M-59 1313q0 37 22.5 62.5t57 25.5t57 -25.5t22.5 -62.5t-21.5 -62.5t-58.5 -25.5q-35 0 -57 25.5t-22 62.5zM160 0v1016l80 24h24v-1040h-104zM326 1313q0 37 22.5 62.5t57 25.5t57 -25.5t22.5 -62.5t-22 -62.5t-57 -25.5q-37 0 -58.5 25.5t-21.5 62.5z" />
<glyph unicode="&#xf0;" horiz-adv-x="1015" d="M63 471q0 240 137.5 396.5t366.5 156.5q115 0 176 -33h9v264h-303v88h303v168l79 25h25v-193h113v-88h-113v-1247l-80 -24h-24v79h-9q-104 -80 -256 -79q-195 0 -309.5 137t-114.5 350zM168 471q0 -182 89 -286.5t255 -104.5q125 0 240 74v751q-88 23 -199 23 q-180 0 -282.5 -130t-102.5 -327z" />
<glyph unicode="&#xf1;" horiz-adv-x="1095" d="M160 0v1014l78 26h26v-120h8q129 104 295 104q221 0 314 -160q47 -84 47 -248v-616h-105v584q0 168 -47 239q-70 104 -223 105q-156 0 -289 -99v-829h-104zM180 1153v23q4 57 12.5 99t27 92t57 78t96.5 28q61 0 114.5 -38t83 -82t70.5 -82t84 -38q35 0 57.5 18.5 t32.5 58.5t14.5 72.5t6.5 90.5h82v-25q-4 -57 -12.5 -99t-27 -91.5t-57.5 -77t-96 -27.5q-61 0 -114.5 38t-83 82t-71.5 82t-83 38q-35 0 -56.5 -18.5t-33 -59.5t-15.5 -72t-8 -90h-80z" />
<glyph unicode="&#xf2;" horiz-adv-x="1056" d="M72 512q0 225 128 376.5t328 151.5q219 0 337 -145t118 -383q0 -223 -125 -375.5t-330 -152.5q-209 0 -332.5 151.5t-123.5 376.5zM176 512q0 -178 95 -305t257 -127q168 0 260.5 122t92.5 310q0 205 -92.5 318.5t-260.5 113.5q-166 0 -259 -124t-93 -308zM291 1448v25 h129l303 -297v-23h-80z" />
<glyph unicode="&#xf3;" horiz-adv-x="1056" d="M72 512q0 225 128 376.5t328 151.5q219 0 337 -145t118 -383q0 -223 -125 -375.5t-330 -152.5q-209 0 -332.5 151.5t-123.5 376.5zM176 512q0 -178 95 -305t257 -127q168 0 260.5 122t92.5 310q0 205 -92.5 318.5t-260.5 113.5q-166 0 -259 -124t-93 -308zM332 1153v23 l305 297h127v-25l-352 -295h-80z" />
<glyph unicode="&#xf4;" horiz-adv-x="1056" d="M72 512q0 225 128 376.5t328 151.5q219 0 337 -145t118 -383q0 -223 -125 -375.5t-330 -152.5q-209 0 -332.5 151.5t-123.5 376.5zM176 512q0 -178 95 -305t257 -127q168 0 260.5 122t92.5 310q0 205 -92.5 318.5t-260.5 113.5q-166 0 -259 -124t-93 -308zM231 1153v23 l232 297h129l231 -297v-23h-80l-217 240l-215 -240h-80z" />
<glyph unicode="&#xf5;" horiz-adv-x="1056" d="M72 512q0 225 128 376.5t328 151.5q219 0 337 -145t118 -383q0 -223 -125 -375.5t-330 -152.5q-209 0 -332.5 151.5t-123.5 376.5zM160 1153v23q4 57 12 99t26.5 92t57.5 78t96 28q61 0 114.5 -38t83.5 -82t71 -82t84 -38q35 0 57 18.5t32.5 58.5t14.5 72.5t6 90.5h82 v-25q-4 -57 -12 -99t-26.5 -91.5t-57.5 -77t-96 -27.5q-61 0 -114.5 38t-83.5 82t-72 82t-83 38q-35 0 -56.5 -18.5t-32.5 -59.5t-15 -72t-8 -90h-80zM176 512q0 -178 95 -305t257 -127q168 0 260.5 122t92.5 310q0 205 -92.5 318.5t-260.5 113.5q-166 0 -259 -124t-93 -308 z" />
<glyph unicode="&#xf6;" horiz-adv-x="1056" d="M72 512q0 225 128 376.5t328 151.5q219 0 337 -145t118 -383q0 -223 -125 -375.5t-330 -152.5q-209 0 -332.5 151.5t-123.5 376.5zM176 512q0 -178 95 -305t257 -127q168 0 260.5 122t92.5 310q0 205 -92.5 318.5t-260.5 113.5q-166 0 -259 -124t-93 -308zM256 1313 q0 37 22.5 62.5t57.5 25.5t57.5 -25.5t22.5 -62.5t-21.5 -62.5t-58.5 -25.5q-35 0 -57.5 25.5t-22.5 62.5zM641 1313q0 37 22.5 62.5t57.5 25.5t57.5 -25.5t22.5 -62.5t-22.5 -62.5t-57.5 -25.5q-37 0 -58.5 25.5t-21.5 62.5z" />
<glyph unicode="&#xf7;" d="M129 672v63h958v-63h-958zM567 311v80h80v-80h-80zM567 1016v80h80v-80h-80z" />
<glyph unicode="&#xf8;" horiz-adv-x="1056" d="M72 512q0 221 128 374.5t328 153.5q170 0 289 -96l64 80h80v-16l-93 -117q115 -139 115 -379q0 -223 -125 -375.5t-330 -152.5q-168 0 -286 102l-66 -86h-80v16l97 123q-121 150 -121 373zM176 512q0 -170 82 -289l498 641q-91 80 -228 80q-166 0 -259 -124t-93 -308z M305 168q94 -88 223 -88q168 0 260.5 122t92.5 310q0 174 -76 297z" />
<glyph unicode="&#xf9;" horiz-adv-x="1095" d="M168 391v625l80 24h24v-616q0 -168 47 -240q72 -104 225.5 -104t286.5 98v838l80 24h25v-1030l-78 -26h-27v96h-8q-133 -96 -295 -96q-219 0 -313 159q-47 86 -47 248zM272 1448v25h129l304 -297v-23h-80z" />
<glyph unicode="&#xfa;" horiz-adv-x="1095" d="M168 391v625l80 24h24v-616q0 -168 47 -240q72 -104 225.5 -104t286.5 98v838l80 24h25v-1030l-78 -26h-27v96h-8q-133 -96 -295 -96q-219 0 -313 159q-47 86 -47 248zM436 1153v23l305 297h127v-25l-352 -295h-80z" />
<glyph unicode="&#xfb;" horiz-adv-x="1095" d="M168 391v625l80 24h24v-616q0 -168 47 -240q72 -104 225.5 -104t286.5 98v838l80 24h25v-1030l-78 -26h-27v96h-8q-133 -96 -295 -96q-219 0 -313 159q-47 86 -47 248zM272 1153v23l232 297h129l231 -297v-23h-80l-217 240l-215 -240h-80z" />
<glyph unicode="&#xfc;" horiz-adv-x="1095" d="M168 391v625l80 24h24v-616q0 -168 47 -240q72 -104 225.5 -104t286.5 98v838l80 24h25v-1030l-78 -26h-27v96h-8q-133 -96 -295 -96q-219 0 -313 159q-47 86 -47 248zM297 1313q0 37 22.5 62.5t57.5 25.5t57.5 -25.5t22.5 -62.5t-21.5 -62.5t-58.5 -25.5 q-35 0 -57.5 25.5t-22.5 62.5zM682 1313q0 37 22.5 62.5t57.5 25.5t57.5 -25.5t22.5 -62.5t-22.5 -62.5t-57.5 -25.5q-37 0 -58.5 25.5t-21.5 62.5z" />
<glyph unicode="&#xfd;" horiz-adv-x="856" d="M47 991v17h105l297 -815l294 815h97v-17l-543 -1440h-104v17l198 487zM307 1153v23l305 297h127v-25l-352 -295h-80z" />
<glyph unicode="&#xfe;" horiz-adv-x="1015" d="M160 -449v1960l80 25h24v-592h8q115 80 256 80q190 0 307 -130t117 -341q0 -246 -137 -407.5t-366 -161.5q-123 -1 -168 32h-17v-465h-104zM264 96q111 -16 176 -16q193 0 300.5 125t107.5 323q0 188 -89 294t-255 106q-125 0 -240 -74v-758z" />
<glyph unicode="&#xff;" horiz-adv-x="856" d="M47 991v17h105l297 -815l294 815h97v-17l-543 -1440h-104v17l198 487zM176 1313q0 37 22.5 62.5t57.5 25.5t57.5 -25.5t22.5 -62.5t-21.5 -62.5t-58.5 -25.5q-35 0 -57.5 25.5t-22.5 62.5zM561 1313q0 37 22.5 62.5t57.5 25.5t57.5 -25.5t22.5 -62.5t-22.5 -62.5 t-57.5 -25.5q-37 0 -58.5 25.5t-21.5 62.5z" />
<glyph unicode="&#x152;" horiz-adv-x="1792" d="M80 735q0 309 188.5 523.5t491.5 214.5h911v-97h-567v-561h504v-94h-504v-625h600v-96h-944q-324 0 -502 208t-178 527zM193 735q0 -276 148 -457.5t419 -181.5h239v1280h-239q-274 0 -420.5 -181t-146.5 -460z" />
<glyph unicode="&#x153;" horiz-adv-x="1783" d="M72 512q0 221 128 374.5t328 153.5q152 0 256.5 -71.5t153.5 -198.5q53 125 155.5 197.5t233.5 72.5q160 0 256 -87t96 -240q0 -49 -14 -146l-682 -22v-17q0 -211 95.5 -329.5t281.5 -118.5q121 0 239 63h17v-88q-125 -72 -289 -71q-143 0 -244.5 72.5t-150.5 199.5 q-55 -125 -160 -198.5t-244 -73.5q-209 0 -332.5 151.5t-123.5 376.5zM176 512q0 -178 95 -305t257 -127q168 0 260.5 122t92.5 310q0 205 -92.5 318.5t-260.5 113.5q-166 0 -259 -124t-93 -308zM999 633l578 22v50q0 117 -66.5 178t-183.5 61q-129 0 -216 -84t-112 -227z " />
<glyph unicode="&#x178;" horiz-adv-x="983" d="M0 1456v17h113l383 -777l385 777h96v-17l-432 -872v-584h-105v567zM240 1778q0 37 22.5 62.5t57 25.5t57 -25.5t22.5 -62.5t-21.5 -62.5t-58.5 -25.5q-35 0 -57 25.5t-22 62.5zM625 1778q0 37 22.5 62.5t57 25.5t57 -25.5t22.5 -62.5t-22 -62.5t-57 -25.5 q-37 0 -58.5 25.5t-21.5 62.5z" />
<glyph unicode="&#x2c6;" horiz-adv-x="1103" d="M264 1153v23l232 297h129l231 -297v-23h-80l-217 240l-215 -240h-80z" />
<glyph unicode="&#x2dc;" horiz-adv-x="1056" d="M160 1153v23q4 57 12 99t26.5 92t57.5 78t96 28q61 0 114.5 -38t83.5 -82t71 -82t84 -38q35 0 57 18.5t32.5 58.5t14.5 72.5t6 90.5h82v-25q-4 -57 -12 -99t-26.5 -91.5t-57.5 -77t-96 -27.5q-61 0 -114.5 38t-83.5 82t-72 82t-83 38q-35 0 -56.5 -18.5t-32.5 -59.5 t-15 -72t-8 -90h-80z" />
<glyph unicode="&#x2000;" horiz-adv-x="1008" />
<glyph unicode="&#x2001;" horiz-adv-x="2017" />
<glyph unicode="&#x2002;" horiz-adv-x="1008" />
<glyph unicode="&#x2003;" horiz-adv-x="2017" />
<glyph unicode="&#x2004;" horiz-adv-x="672" />
<glyph unicode="&#x2005;" horiz-adv-x="504" />
<glyph unicode="&#x2006;" horiz-adv-x="336" />
<glyph unicode="&#x2007;" horiz-adv-x="336" />
<glyph unicode="&#x2008;" horiz-adv-x="252" />
<glyph unicode="&#x2009;" horiz-adv-x="403" />
<glyph unicode="&#x200a;" horiz-adv-x="112" />
<glyph unicode="&#x2010;" horiz-adv-x="831" d="M129 647v113h576v-113h-576z" />
<glyph unicode="&#x2011;" horiz-adv-x="831" d="M129 647v113h576v-113h-576z" />
<glyph unicode="&#x2012;" horiz-adv-x="831" d="M129 647v113h576v-113h-576z" />
<glyph unicode="&#x2013;" horiz-adv-x="1024" d="M129 647v113h768v-113h-768z" />
<glyph unicode="&#x2014;" horiz-adv-x="2048" d="M129 647v113h1792v-113h-1792z" />
<glyph unicode="&#x2018;" horiz-adv-x="512" d="M160 1153q0 207 112 320h80v-15q-49 -49 -72.5 -111.5t-23.5 -107.5v-6q80 -12 80 -88q0 -37 -25.5 -62.5t-62.5 -25.5q-39 0 -63.5 28.5t-24.5 67.5z" />
<glyph unicode="&#x2019;" horiz-adv-x="512" d="M152 1057v12q96 102 96 219v8q-80 12 -80 88q0 35 26.5 62t61.5 27q39 0 63.5 -30t24.5 -67q0 -206 -113 -319h-79z" />
<glyph unicode="&#x201a;" horiz-adv-x="512" d="M152 -242q49 49 72.5 111.5t23.5 105.5v25q-80 12 -80 80q0 35 25.5 57.5t62.5 22.5q39 0 63.5 -29t24.5 -68q0 -206 -113 -319h-79v14z" />
<glyph unicode="&#x201c;" horiz-adv-x="831" d="M160 1153q0 207 112 320h80v-15q-49 -49 -72.5 -111.5t-23.5 -107.5v-6q80 -12 80 -88q0 -37 -25.5 -62.5t-62.5 -25.5q-39 0 -63.5 28.5t-24.5 67.5zM487 1153q0 207 113 320h80v-15q-49 -49 -72.5 -111.5t-23.5 -107.5v-6q80 -12 80 -88q0 -37 -26 -62.5t-63 -25.5 q-39 0 -63.5 28.5t-24.5 67.5z" />
<glyph unicode="&#x201d;" horiz-adv-x="831" d="M152 1057v12q96 102 96 219v8q-80 12 -80 88q0 35 26.5 62t61.5 27q39 0 63.5 -30t24.5 -67q0 -206 -113 -319h-79zM479 1057v12q96 98 96 219v8q-80 12 -79 88q0 35 26.5 62t61.5 27q41 0 64.5 -29t23.5 -68q0 -208 -113 -319h-80z" />
<glyph unicode="&#x201e;" horiz-adv-x="831" d="M152 -242q49 49 72.5 111.5t23.5 105.5v25q-80 12 -80 80q0 35 25.5 57.5t62.5 22.5q39 0 63.5 -29t24.5 -68q0 -206 -113 -319h-79v14zM479 -242q96 96 96 217v25q-80 12 -79 80q0 35 25.5 57.5t62.5 22.5q41 0 64.5 -29t23.5 -68q0 -208 -113 -319h-80v14z" />
<glyph unicode="&#x2022;" d="M289 641q0 131 94 225.5t225 94.5t225.5 -94.5t94.5 -225.5q0 -133 -94.5 -227.5t-225.5 -94.5t-225 94.5t-94 227.5z" />
<glyph unicode="&#x2026;" horiz-adv-x="1536" d="M168 72q0 37 26.5 62.5t61.5 25.5t61.5 -25.5t26.5 -62.5q0 -35 -26.5 -61.5t-61.5 -26.5t-61.5 26.5t-26.5 61.5zM680 72q0 37 26.5 62.5t61.5 25.5t61.5 -25.5t26.5 -62.5q0 -35 -26.5 -61.5t-61.5 -26.5t-61.5 26.5t-26.5 61.5zM1192 72q0 37 26.5 62.5t61.5 25.5 t61.5 -25.5t26.5 -62.5q0 -35 -26.5 -61.5t-61.5 -26.5t-61.5 26.5t-26.5 61.5z" />
<glyph unicode="&#x202f;" horiz-adv-x="403" />
<glyph unicode="&#x2039;" horiz-adv-x="641" d="M63 496v159l465 322h17v-105l-410 -297l410 -294v-105h-17z" />
<glyph unicode="&#x203a;" horiz-adv-x="641" d="M96 176v105l408 294l-408 297v105h17l462 -322v-159l-462 -320h-17z" />
<glyph unicode="&#x205f;" horiz-adv-x="504" />
<glyph unicode="&#x20ac;" d="M96 496v96h193v256h-193v96h193v72q0 213 124 343t330 130q193 0 322 -66v-88h-16q-129 66 -306 66q-174 0 -263 -105.5t-89 -279.5v-72h473v-96h-473v-256h473v-96h-473v-56q0 -168 91 -268t261 -100q168 0 328 80h16v-105q-160 -63 -344 -63q-215 0 -334.5 119.5 t-119.5 336.5v56h-193z" />
<glyph unicode="&#x2122;" horiz-adv-x="1439" d="M63 1384v89h504v-89h-198v-720h-105v720h-201zM688 664v809h55l256 -386l248 386h49v-809h-104v553l-176 -273h-39l-184 273v-553h-105z" />
<glyph unicode="&#x25fc;" horiz-adv-x="1003" d="M0 0v1004h1004v-1004h-1004z" />
</font>
</defs>
</svg>
