<?xml version="1.0" standalone="no"?>
<!DOCTYPE svg PUBLIC "-//W3C//DTD SVG 1.1//EN" "http://www.w3.org/Graphics/SVG/1.1/DTD/svg11.dtd" >
<svg xmlns="http://www.w3.org/2000/svg">
<metadata></metadata>
<defs>
<font id="frescosans_stdnormal" horiz-adv-x="1216" >
<font-face units-per-em="2048" ascent="1536" descent="-512" />
<missing-glyph horiz-adv-x="512" />
<glyph unicode="&#xfb01;" horiz-adv-x="1136" d="M41 864v144h160v129q0 186 130 292.5t324 106.5h289v-143h-289q-129 0 -207.5 -68t-78.5 -205v-112h432l119 32h49v-1040h-168v864h-432v-864h-168v864h-160z" />
<glyph unicode="&#xfb02;" horiz-adv-x="1153" d="M41 864v144h160v129q0 188 116.5 293.5t307.5 105.5h358v-1536h-168v1393h-190q-256 0 -256 -273v-112h256v-144h-256v-864h-168v864h-160z" />
<glyph horiz-adv-x="0" />
<glyph horiz-adv-x="682" />
<glyph unicode="&#xd;" horiz-adv-x="681" />
<glyph unicode=" "  horiz-adv-x="512" />
<glyph unicode="&#x09;" horiz-adv-x="512" />
<glyph unicode="&#xa0;" horiz-adv-x="512" />
<glyph unicode="!" horiz-adv-x="528" d="M160 96q0 51 26.5 82t77.5 31t78 -31t27 -82t-27 -81.5t-78 -30.5t-77.5 30.5t-26.5 81.5zM176 1024v449h168v-449l-47 -575h-74z" />
<glyph unicode="&#x22;" horiz-adv-x="831" d="M160 1343v130h168v-130l-47 -256h-72zM504 1343v130h168v-130l-47 -256h-72z" />
<glyph unicode="#" d="M63 336v96h248v608h-248v97h248v336h97v-336h401v336h94v-336h250v-97h-250v-608h250v-96h-250v-336h-94v336h-401v-336h-97v336h-248zM408 432h401v608h-401v-608z" />
<glyph unicode="$" d="M176 55v160h17q68 -39 167 -62.5t177 -23.5q152 0 243.5 68.5t91.5 187.5q0 168 -225 262l-207 88q-123 49 -189.5 144.5t-66.5 224.5q0 162 109.5 260t281.5 119v182h146v-178q174 -8 270 -47v-160h-14q-129 63 -330 63q-129 0 -208 -57t-79 -182q0 -158 168 -223 l215 -88q305 -125 306 -377q0 -174 -102.5 -280.5t-274.5 -139.5v-252h-144v240q-186 4 -352 71z" />
<glyph unicode="%" horiz-adv-x="1792" d="M55 1071q0 174 93.5 296t283.5 122q195 0 289 -121t94 -297t-95 -296t-288 -120q-190 0 -283.5 119t-93.5 297zM215 1071q0 -278 217 -278q117 0 170 78.5t53 199.5q0 123 -53 202t-170 79q-217 0 -217 -281zM449 0v25l798 1448h96v-25l-798 -1448h-96zM977 399 q0 174 92 295t283 121q197 0 291 -120t94 -296t-96 -295.5t-289 -119.5q-190 0 -282.5 118.5t-92.5 296.5zM1137 399q0 -278 215 -278q117 0 171 79t54 199.5t-54.5 200.5t-170.5 80q-215 0 -215 -281z" />
<glyph unicode="&#x26;" horiz-adv-x="1536" d="M80 352q0 123 59.5 205t212.5 186l33 23l-25 27q-184 178 -184 344q0 154 106.5 253t270.5 99q162 0 256 -89t94 -241q0 -109 -62.5 -190.5t-176.5 -167.5l-52 -37l392 -410q125 162 124 351h-137v143h465v-143h-184q-6 -248 -174 -451l14 -14q76 -80 135.5 -103.5 t161.5 -23.5h47v-97q-94 -33 -168 -32q-164 0 -289 137l-18 18q-198 -155 -444 -155q-197 0 -327 99t-130 269zM256 385q0 -129 82 -192.5t229 -63.5q172 0 320 109l-410 428l-37 -25q-88 -59 -136 -117.5t-48 -138.5zM352 1137q0 -104 135 -240l33 -37l64 43 q82 57 112.5 116.5t30.5 139.5q0 90 -45 137t-129 47q-96 0 -148.5 -55t-52.5 -151z" />
<glyph unicode="'" horiz-adv-x="487" d="M160 1343v130h168v-130l-47 -256h-72z" />
<glyph unicode="(" horiz-adv-x="575" d="M96 592v33q0 276 107.5 506.5t245.5 341.5h96v-33q-289 -289 -289 -815v-33q0 -526 289 -815v-33h-96q-137 109 -245 340t-108 508z" />
<glyph unicode=")" horiz-adv-x="575" d="M33 -223q287 287 286 815v33q0 528 -286 815v33h96q137 -111 243.5 -341.5t106.5 -506.5v-33q0 -276 -106.5 -507.5t-243.5 -340.5h-96v33z" />
<glyph unicode="*" horiz-adv-x="1056" d="M129 893l111 63l241 93l-241 92l-111 63l64 113l110 -66l203 -166l-41 258v130h127v-130l-41 -253l201 161l112 66l64 -113l-113 -63l-242 -92l242 -93l113 -63l-64 -113l-112 64l-199 164l39 -256v-127h-127v127l41 256l-203 -164l-110 -64z" />
<glyph unicode="+" d="M129 655v97h430v448h96v-448h432v-97h-432v-446h-96v446h-430z" />
<glyph unicode="," horiz-adv-x="528" d="M96 -240q57 37 100.5 96.5t43.5 110.5v33q-80 20 -80 96q0 57 29.5 85t74.5 28q104 0 105 -154q-1 -200 -146 -311h-127v16z" />
<glyph unicode="-" horiz-adv-x="831" d="M129 641v127h576v-127h-576z" />
<glyph unicode="." horiz-adv-x="528" d="M160 96q0 51 26.5 82t77.5 31t78 -31t27 -82t-27 -81.5t-78 -30.5t-77.5 30.5t-26.5 81.5z" />
<glyph unicode="/" horiz-adv-x="991" d="M63 0v33l738 1440h127v-33l-735 -1440h-130z" />
<glyph unicode="0" d="M113 735q0 352 124.5 553t370.5 201q254 0 375 -198.5t121 -555.5q0 -352 -125 -551.5t-371 -199.5q-254 0 -374.5 197.5t-120.5 553.5zM289 735q0 -606 319.5 -606t319.5 606q0 608 -319.5 608t-319.5 -608z" />
<glyph unicode="1" d="M209 1167v146l479 176h80v-1489h-176v1305l-369 -138h-14z" />
<glyph unicode="2" d="M129 0v104l328 345q8 8 60 62t62.5 65.5t53.5 58.5t55 65.5t43 60.5t40 67.5t25.5 64.5t21.5 75t5 72q0 152 -82 227.5t-229 75.5q-188 0 -319 -110h-17v143q61 49 159.5 81t192.5 32q217 0 348.5 -120t131.5 -329q0 -76 -27 -153.5t-55.5 -129.5t-93 -128t-89 -101.5 t-96.5 -95.5l-287 -289h760v-143h-991z" />
<glyph unicode="3" d="M113 80v143h16q188 -94 383 -94q170 0 277.5 70.5t107.5 216.5q0 127 -88 191.5t-234 64.5h-190v121l174 30q113 23 201 95.5t88 193.5q0 231 -320 231q-78 0 -169 -26.5t-150 -61.5h-16v146q205 88 374 88q205 0 331 -94.5t126 -249.5q0 -150 -81 -240t-183 -129 q150 -25 230.5 -120t80.5 -240q0 -207 -159.5 -319.5t-399.5 -112.5q-231 0 -399 96z" />
<glyph unicode="4" d="M80 449v110l704 930h160v-897h215v-143h-215v-449h-176v449h-688zM256 592h512v672z" />
<glyph unicode="5" d="M143 63v146h17q174 -74 352 -74q166 0 267.5 79t101.5 226q0 160 -92.5 236t-309.5 76h-270v721h815v-146h-655v-430h110q301 0 439.5 -114.5t138.5 -342.5q0 -190 -144.5 -319t-384.5 -129q-225 0 -385 71z" />
<glyph unicode="6" d="M121 647q0 207 60.5 368t166 259t238.5 148.5t286 50.5h193v-146h-176q-231 0 -377.5 -115.5t-196.5 -339.5h21q135 104 297 105q209 0 340 -123t131 -358q0 -238 -136.5 -375t-359.5 -137q-227 0 -357 161.5t-130 501.5zM297 647q0 -518 328 -518q139 0 221 91t82 276 q0 160 -84 247.5t-219 87.5q-176 0 -326 -112q-2 -25 -2 -72z" />
<glyph unicode="7" d="M143 1327v146h977v-105l-680 -1368h-176v25l680 1302h-801z" />
<glyph unicode="8" d="M121 399q0 55 17.5 105.5t34.5 81t55 66.5t48.5 44.5t42.5 30.5l72 55q-240 133 -239 338q0 172 133 270.5t323 98.5q201 0 329 -100.5t128 -284.5q0 -78 -32 -144.5t-61.5 -98.5t-82.5 -77l-53 -45q119 -59 189.5 -136t70.5 -204q0 -186 -146.5 -300.5t-357.5 -114.5 t-341 109.5t-130 305.5zM297 399q0 -131 84 -200.5t211 -69.5q166 0 247 75t81 195q0 51 -20.5 92t-61.5 72t-70 46.5t-80 37.5l-178 80l-53 -47q-4 -4 -24.5 -21.5t-27 -23.5t-23.5 -23.5t-23.5 -27t-19.5 -26.5t-18.5 -32.5t-12.5 -36t-9 -43t-2 -47.5zM328 1120 q0 -49 17 -88t52 -67.5t63.5 -46t76.5 -37.5l180 -84l35 34q47 47 69.5 75t45 81t22.5 117q0 111 -70.5 175t-210.5 64q-127 0 -203.5 -54t-76.5 -169z" />
<glyph unicode="9" d="M129 991q0 223 138.5 360.5t340.5 137.5q229 0 366.5 -160t137.5 -481q0 -416 -200.5 -632t-526.5 -216h-176v143h160q221 0 360 120t184 353h-16q-139 -104 -305 -104q-203 0 -333 125t-130 354zM303 991q0 -162 84 -249t221 -87q186 0 326 113q0 12 1 39t1 41 q0 244 -89 369.5t-239 125.5q-129 0 -217 -90t-88 -262z" />
<glyph unicode=":" horiz-adv-x="528" d="M160 96q0 51 26.5 82t77.5 31t78 -31t27 -82t-27 -81.5t-78 -30.5t-77.5 30.5t-26.5 81.5zM160 897q0 49 26.5 80t77.5 31t78 -31t27 -80q0 -113 -104.5 -113t-104.5 113z" />
<glyph unicode=";" horiz-adv-x="528" d="M96 -240q57 37 100.5 96.5t43.5 110.5v33q-80 20 -80 96q0 57 29.5 85t74.5 28q104 0 105 -154q-1 -200 -146 -311h-127v16zM160 897q0 49 26.5 80t77.5 31t78 -31t27 -80q0 -113 -104.5 -113t-104.5 113z" />
<glyph unicode="&#x3c;" d="M129 641v94l942 482h16v-113l-847 -416l847 -416v-112h-16z" />
<glyph unicode="=" d="M129 479v96h958v-96h-958zM129 897v94h958v-94h-958z" />
<glyph unicode="&#x3e;" d="M129 160v112l848 416l-848 416v113h14l944 -482v-94l-944 -481h-14z" />
<glyph unicode="?" horiz-adv-x="847" d="M129 1343v130h240q178 0 288.5 -89.5t110.5 -230.5q0 -76 -16.5 -134t-58.5 -112.5t-70.5 -83t-94.5 -88.5l-129 -110v-176h-159v159q0 49 9 68.5t54 58.5l96 80q209 172 209 305q0 223 -272 223h-207zM215 96q0 51 26.5 82t78 31t78 -31t26.5 -82t-26.5 -81.5t-78 -30.5 t-78 30.5t-26.5 81.5z" />
<glyph unicode="@" horiz-adv-x="2064" d="M88 512q0 301 139.5 527.5t359.5 338t484 111.5q403 0 654 -227.5t251 -620.5q0 -287 -133 -472t-370 -185q-68 0 -119 20.5t-72.5 39.5t-48.5 52h-8q-6 -4 -24.5 -18.5t-27 -20.5t-28 -18t-31.5 -17.5t-34.5 -14.5t-44 -13t-49.5 -7t-58 -3q-141 0 -238.5 114.5 t-97.5 350.5q0 285 149.5 438t362.5 153q195 0 264 -49v-719q0 -143 143 -143q289 0 289 512q0 330 -191.5 516t-537.5 186q-348 0 -573.5 -221t-225.5 -610q0 -385 195 -600t524 -215q258 0 449 102h16v-159q-158 -89 -465 -89q-418 0 -660.5 260.5t-242.5 700.5zM768 465 q0 -336 231 -336q51 0 109.5 32t91.5 70v641q-61 25 -129 25q-129 0 -216 -120t-87 -312z" />
<glyph unicode="A" d="M0 0v25l520 1448h207l490 -1448v-25h-185l-133 399h-592l-139 -399h-168zM360 545h494l-238 727z" />
<glyph unicode="B" horiz-adv-x="1247" d="M184 0v1473h424q449 0 449 -369q0 -100 -60.5 -186.5t-140.5 -124.5q129 -27 213 -122.5t84 -254.5q0 -168 -122 -292t-343 -124h-504zM360 143h295q322 0 322 272.5t-352 272.5h-265v-545zM360 831h361q160 98 160 273q0 223 -273 223h-248v-496z" />
<glyph unicode="C" horiz-adv-x="1167" d="M72 735q0 336 198.5 545t497.5 209q209 0 319 -66v-143h-16q-127 63 -303 63q-238 0 -375 -161.5t-137 -429.5q0 -303 138 -463t374 -160q164 0 319 80h17v-162q-152 -63 -369 -63q-313 0 -488 213t-175 538z" />
<glyph unicode="D" horiz-adv-x="1409" d="M184 0v1473h416q358 0 546.5 -185.5t188.5 -535.5q0 -334 -175 -543t-527 -209h-449zM360 143h265q260 0 394 166t134 459q0 266 -143.5 412.5t-417.5 146.5h-232v-1184z" />
<glyph unicode="E" horiz-adv-x="1056" d="M184 0v1473h744v-146h-568v-496h504v-143h-504v-545h601v-143h-777z" />
<glyph unicode="F" horiz-adv-x="1024" d="M184 0v1473h744v-146h-568v-496h504v-143h-504v-688h-176z" />
<glyph unicode="G" horiz-adv-x="1376" d="M72 752q0 338 211 537.5t518 199.5q233 0 383 -66v-143h-17q-150 63 -366 63q-244 0 -394.5 -156.5t-150.5 -418.5q0 -305 139.5 -472t372.5 -167q137 0 264 51v492h185v-576q-230 -112 -482 -112q-311 0 -487 220t-176 548z" />
<glyph unicode="H" horiz-adv-x="1464" d="M184 0v1473h176v-625h744v625h176v-1473h-176v705h-744v-705h-176z" />
<glyph unicode="I" horiz-adv-x="552" d="M184 0v1473h176v-1473h-176z" />
<glyph unicode="J" horiz-adv-x="552" d="M-104 -113h79q209 0 209 306v1280h176v-1280q0 -195 -90 -322t-270 -127h-104v143z" />
<glyph unicode="K" d="M184 0v1473h176v-642h136l503 642h177v-25l-543 -688l543 -735v-25h-193l-512 688h-111v-688h-176z" />
<glyph unicode="L" horiz-adv-x="960" d="M184 0v1473h176v-1330h601v-143h-777z" />
<glyph unicode="M" horiz-adv-x="1728" d="M184 0v1473h185l495 -768l496 768h184v-1473h-184v1208l-479 -743h-66l-455 719v-1184h-176z" />
<glyph unicode="N" horiz-adv-x="1519" d="M184 0v1473h168l801 -1162v1162h174v-1473h-160l-807 1176v-1176h-176z" />
<glyph unicode="O" horiz-adv-x="1409" d="M72 735q0 326 169 540t464 214q305 0 467.5 -212t162.5 -542q0 -315 -168.5 -533t-461.5 -218q-307 0 -470 208.5t-163 542.5zM256 735q0 -262 115 -434t334 -172q217 0 332.5 172t115.5 434t-115.5 435t-332.5 173q-147 0 -251 -84.5t-151 -219t-47 -304.5z" />
<glyph unicode="P" horiz-adv-x="1200" d="M184 0v1473h408q252 0 390 -117t138 -332q0 -244 -134 -378t-394 -134h-232v-512h-176zM360 655h232q344 0 344 369q0 141 -89 222t-255 81h-232v-672z" />
<glyph unicode="Q" horiz-adv-x="1409" d="M72 735q0 326 169 540t464 214q305 0 467.5 -212t162.5 -542q0 -256 -113.5 -452.5t-318.5 -266.5v-16l305 -369v-16h-247l-265 369q-203 2 -346 103t-210.5 267t-67.5 381zM256 735q0 -262 115 -434t334 -172q217 0 332.5 172t115.5 434t-115.5 435t-332.5 173 q-147 0 -251 -84.5t-151 -219t-47 -304.5z" />
<glyph unicode="R" horiz-adv-x="1263" d="M184 0v1473h424q229 0 362.5 -97.5t133.5 -304.5q0 -276 -264 -416l344 -630v-25h-201l-295 592h-328v-592h-176zM360 735h367q193 115 193 322q0 141 -77 205.5t-235 64.5h-248v-592z" />
<glyph unicode="S" horiz-adv-x="1040" d="M88 55v160h16q68 -39 167.5 -62.5t177.5 -23.5q152 0 243.5 68.5t91.5 187.5q0 168 -225 262l-207 88q-123 49 -189.5 144.5t-66.5 224.5q0 184 138.5 284.5t340.5 100.5q186 0 306 -49v-160h-17q-129 63 -305 63q-129 0 -208 -57t-79 -182q0 -158 168 -223l215 -88 q305 -125 306 -377q0 -207 -143.5 -319.5t-368.5 -112.5q-182 0 -361 71z" />
<glyph unicode="T" horiz-adv-x="1064" d="M0 1327v146h1071v-146h-446v-1327h-176v1327h-449z" />
<glyph unicode="U" horiz-adv-x="1423" d="M184 528v945h176v-914q0 -430 353 -430q344 0 344 430v914h176v-945q0 -262 -141.5 -403t-395.5 -141q-246 0 -379 140t-133 404z" />
<glyph unicode="V" horiz-adv-x="1183" d="M-8 1448v25h184l424 -1289l424 1289h168v-25l-504 -1448h-209z" />
<glyph unicode="W" horiz-adv-x="1824" d="M-8 1448v25h184l391 -1289l301 908l-100 356v25h184l344 -1289l369 1289h168v-25l-449 -1448h-208l-236 831l-285 -831h-206z" />
<glyph unicode="X" horiz-adv-x="1144" d="M0 0v25l477 725l-444 698v25h182l371 -576l366 576h168v-25l-450 -680l483 -743v-25h-192l-398 618l-395 -618h-168z" />
<glyph unicode="Y" horiz-adv-x="1056" d="M-8 1448v25h184l361 -746l360 746h168v-25l-449 -858v-590h-184v575z" />
<glyph unicode="Z" horiz-adv-x="1056" d="M25 0v63l751 1264h-721v146h953v-64l-744 -1266h760v-143h-999z" />
<glyph unicode="[" horiz-adv-x="575" d="M129 -256v1729h383v-130h-223v-1472h223v-127h-383z" />
<glyph unicode="\" horiz-adv-x="991" d="M63 1440v33h130l735 -1440v-33h-127z" />
<glyph unicode="]" horiz-adv-x="575" d="M63 -129h226v1472h-226v130h386v-1729h-386v127z" />
<glyph unicode="^" d="M80 223v17l479 880h96l482 -880v-17h-113l-416 785l-415 -785h-113z" />
<glyph unicode="_" horiz-adv-x="1224" d="M0 -88h1217v-96h-1217v96z" />
<glyph unicode="`" horiz-adv-x="1103" d="M129 1440v33h174l297 -289v-31h-96z" />
<glyph unicode="a" horiz-adv-x="1024" d="M72 281q0 106 68.5 178.5t163.5 102.5t208 30h152v129q0 94 -51.5 135t-172.5 41q-129 0 -256 -66h-16v146q147 63 311 63q154 0 243 -59t109 -133v-625q0 -59 15.5 -76.5t64.5 -17.5h72v-129q-61 -16 -135 -16q-55 0 -102.5 25.5t-61.5 70.5h-12q-37 -37 -119 -66.5 t-162 -29.5q-141 0 -230 73.5t-89 223.5zM240 289q0 -176 192 -176q59 0 127 28.5t105 67.5v256h-160q-264 0 -264 -176z" />
<glyph unicode="b" horiz-adv-x="1112" d="M168 0v1503l121 33h47v-592h16q109 80 256 80q195 0 309.5 -129t114.5 -336q0 -276 -152.5 -417.5t-400.5 -141.5h-311zM336 143h160q170 0 265 94.5t95 290.5q0 352 -297 353q-115 0 -223 -80v-658z" />
<glyph unicode="c" horiz-adv-x="960" d="M80 512q0 250 159.5 389t385.5 139q166 0 264 -49v-143h-17q-74 49 -247 49q-158 0 -263.5 -98.5t-105.5 -270.5q0 -197 97.5 -298t254.5 -101q145 0 273 64h16v-146q-129 -63 -305 -63q-221 0 -366.5 137t-145.5 391z" />
<glyph unicode="d" horiz-adv-x="1112" d="M80 479q0 254 149.5 399.5t370.5 145.5q94 0 160 -33h16v512l121 33h47v-1520l-96 -32h-72v79h-16q-108 -79 -252 -79h-4q-186 0 -305 131t-119 364zM256 479q0 -166 80 -258t223 -92q94 0 217 64v671q-80 17 -168 17q-147 0 -249.5 -99.5t-102.5 -302.5z" />
<glyph unicode="e" horiz-adv-x="1040" d="M80 512q0 244 140 386t347 142q176 0 276.5 -93t100.5 -242q0 -74 -16 -168l-672 -23v-2q0 -188 90 -285.5t254 -97.5q147 0 272 64h17v-146q-113 -63 -322 -63q-223 0 -355 139t-132 389zM270 641l506 23v24q0 209 -209 209q-111 0 -191.5 -62.5t-103.5 -179.5z" />
<glyph unicode="f" horiz-adv-x="624" d="M41 864v144h160v129q0 188 116.5 293.5t307.5 105.5h110v-143h-110q-256 0 -256 -273v-112h256v-144h-256v-864h-168v864h-160z" />
<glyph unicode="g" horiz-adv-x="1056" d="M63 -193q0 166 256 248v8q-55 45 -55 113q0 49 35 89t78 54v15q-125 31 -199 118t-74 220q0 164 112 258t280 94q123 0 223 -55h8l217 39h80v-127h-209q66 -92 66 -209q0 -164 -108.5 -258.5t-276.5 -94.5h-19q-61 -53 -61 -96q0 -59 119 -78q6 -2 10 -2l207 -14 q239 -14 239 -223q0 -152 -161 -254q-162 -101 -373 -101q-174 0 -284 60.5t-110 195.5zM231 -176q0 -143 240 -143q135 0 243.5 51t108.5 139q0 59 -27.5 79.5t-115.5 33.5l-176 16q-45 4 -78 14l-35 -14q-68 -27 -114 -74t-46 -102zM272 671.5q0 -102.5 54.5 -162.5 t169.5 -60q217 0 217 223q0 225 -217 225q-115 0 -169.5 -61.5t-54.5 -164z" />
<glyph unicode="h" horiz-adv-x="1175" d="M168 0v1503l121 33h47v-608h16q121 96 289 96q190 0 287 -127q80 -106 80 -289v-608h-168v559q0 150 -47 225q-61 96 -209 97q-127 0 -248 -97v-784h-168z" />
<glyph unicode="i" horiz-adv-x="503" d="M143 1423.5q0 49.5 29 81t76 31.5t75.5 -31.5t28.5 -81t-28.5 -80t-75.5 -30.5t-76 30.5t-29 80zM160 0v1008l121 32h47v-1040h-168z" />
<glyph unicode="j" horiz-adv-x="503" d="M-121 -303h113q176 0 176 190v1121l121 32h47v-1120q0 -172 -82 -270.5t-246 -98.5h-129v146zM143 1423.5q0 49.5 29 81t76 31.5t75.5 -31.5t28.5 -81t-28.5 -80t-75.5 -30.5t-76 30.5t-29 80z" />
<glyph unicode="k" horiz-adv-x="976" d="M168 0v1503l121 33h47v-928h49l375 400h184v-17l-399 -407l416 -568v-16h-201l-344 479h-80v-479h-168z" />
<glyph unicode="l" horiz-adv-x="503" d="M168 0v1503l121 33h47v-1536h-168z" />
<glyph unicode="m" horiz-adv-x="1816" d="M168 0v1008l121 32h47v-112h16q121 96 289 96q74 0 156 -33t133 -94h22q127 127 320 127q197 0 297 -127q80 -111 80 -289v-608h-168v559q0 152 -49 225q-29 45 -86.5 71t-120.5 26q-125 0 -234 -97v-784h-168v559q0 176 -30 225q-61 96 -209 97q-127 0 -248 -97v-784 h-168z" />
<glyph unicode="n" horiz-adv-x="1175" d="M168 0v1008l121 32h47v-112h16q121 96 289 96q190 0 287 -127q80 -106 80 -289v-608h-168v559q0 150 -47 225q-61 96 -209 97q-127 0 -248 -97v-784h-168z" />
<glyph unicode="o" horiz-adv-x="1103" d="M80 512q0 246 134 387t339 141q217 0 344 -139t127 -389q0 -244 -134 -386t-337 -142q-219 0 -346 139t-127 389zM256 512q0 -182 77 -282.5t220 -100.5q141 0 218 101.5t77 281.5q0 184 -75 284.5t-220 100.5q-143 0 -220 -101.5t-77 -283.5z" />
<glyph unicode="p" horiz-adv-x="1112" d="M168 -449v1457l121 32h47v-96h16q109 80 256 80q190 0 307 -131t117 -365q0 -256 -142 -400t-362 -144q-111 0 -176 32h-16v-465h-168zM336 143q86 -22 176 -22q344 0 344 407q0 168 -77 260.5t-220 92.5q-96 0 -223 -66v-672z" />
<glyph unicode="q" horiz-adv-x="1112" d="M80 449q0 274 159.5 416.5t407.5 142.5h297v-1457h-168v512h-16q-108 -79 -252 -79h-4q-190 0 -307 130t-117 335zM256 479q0 -350 303 -350q115 0 217 80v655h-143q-168 0 -272.5 -95t-104.5 -290z" />
<glyph unicode="r" horiz-adv-x="696" d="M168 0v1008l121 32h47v-143h16q86 127 240 127q63 0 96 -16v-160h-129q-147 0 -223 -96v-752h-168z" />
<glyph unicode="s" horiz-adv-x="903" d="M88 41v152h16q123 -63 304 -64q102 0 163.5 40t61.5 120q0 59 -32 92t-105 51l-160 39q-248 63 -248 281q0 141 112.5 214.5t270.5 73.5q184 0 281 -49v-143h-17q-96 49 -270 49q-209 0 -209 -137q0 -63 31.5 -93t111.5 -51l176 -49q102 -27 164 -93t62 -171 q0 -152 -115 -235.5t-295 -83.5q-74 0 -165 16t-138 41z" />
<glyph unicode="t" horiz-adv-x="704" d="M41 864v144h160v239l118 33h50v-272h286v-144h-286v-592q0 -80 31.5 -111.5t95.5 -31.5q74 0 145 47h14v-143q-69 -49 -190 -49q-123 0 -193.5 58t-70.5 167v655h-160z" />
<glyph unicode="u" horiz-adv-x="1175" d="M160 399v609l121 32h47v-591q0 -152 49 -226q57 -94 207 -94q129 0 247 94v785l121 32h47v-1024l-88 -32h-80v96h-16q-121 -96 -287 -96q-193 0 -288 129q-80 109 -80 286z" />
<glyph unicode="v" horiz-adv-x="927" d="M0 991v17h176l295 -793l281 793h168v-17l-392 -991l-63 -16h-80z" />
<glyph unicode="w" horiz-adv-x="1511" d="M0 991v17h176l281 -793l227 547l-84 229v17h176l273 -793l286 793h168v-17l-391 -991l-72 -16h-71l-215 581l-242 -565l-63 -16h-80z" />
<glyph unicode="x" horiz-adv-x="935" d="M25 0v16l348 484l-348 491v17h184l264 -375l254 375h170v-17l-340 -477l354 -498v-16h-184l-272 385l-262 -385h-168z" />
<glyph unicode="y" horiz-adv-x="927" d="M0 991v17h176l293 -783l283 783h168v-17l-400 -991l-176 -449h-168v25l199 432z" />
<glyph unicode="z" horiz-adv-x="872" d="M25 0v80l550 784h-534v144h760v-80l-545 -785h559v-143h-790z" />
<glyph unicode="{" horiz-adv-x="831" d="M63 608v127q156 8 206 62.5t50 163.5v192q0 160 86.5 240t235.5 80h127v-130h-113q-82 0 -129 -51t-47 -139v-192q0 -238 -223 -289q223 -47 223 -287v-272q0 -125 41 -183.5t135 -58.5h113v-127h-127q-322 0 -322 319v322q0 109 -50 163t-206 60z" />
<glyph unicode="|" horiz-adv-x="559" d="M231 -449v2048h97v-2048h-97z" />
<glyph unicode="}" horiz-adv-x="831" d="M63 -129h113q94 0 135 58.5t41 183.5v272q0 240 223 287q-223 51 -223 289v192q0 88 -46 139t-130 51h-113v130h130q150 0 234.5 -80t84.5 -240v-192q0 -106 51 -162t205 -64v-127q-154 -6 -205 -61t-51 -162v-322q0 -172 -82.5 -245.5t-236.5 -73.5h-130v127z" />
<glyph unicode="~" d="M129 553v88q33 59 96.5 101t143.5 42q100 0 253.5 -96t225.5 -96q137 0 223 135h16v-86q-33 -61 -96 -103t-143 -42q-82 0 -170 48t-168 96t-141 48q-137 0 -226 -135h-14z" />
<glyph unicode="&#xa1;" horiz-adv-x="528" d="M152 1376q0 51 26.5 82t77.5 31t77.5 -31t26.5 -82t-26.5 -81.5t-77.5 -30.5t-77.5 30.5t-26.5 81.5zM176 0v449l47 575h74l47 -575v-449h-168z" />
<glyph unicode="&#xa2;" d="M80 735q0 315 176 521t449 229v180h143v-180q147 -10 239 -62v-143h-16q-127 63 -303 63q-236 0 -370 -161.5t-134 -429.5q0 -303 135.5 -463t368.5 -160q164 0 319 80h17v-162q-117 -49 -273 -59v-244h-143v242q-289 18 -448.5 228t-159.5 521z" />
<glyph unicode="&#xa3;" d="M121 0v143h198v545h-198v143h198v209q0 207 118 320t306 113h281v-146h-289q-109 0 -174 -65.5t-65 -174.5v-256h335v-143h-335v-545h591v-143h-966z" />
<glyph unicode="&#xa4;" d="M223 424l101 100q-59 84 -60 211q0 123 62 211l-103 103l80 79l103 -102q90 61 210 61q123 0 211 -59l101 100l80 -79l-99 -99q68 -86 68 -215q0 -125 -66 -217q14 -14 39 -39.5t39.5 -39t16.5 -15.5q-78 -78 -78 -80l-97 96q-92 -63 -215 -63q-125 0 -215 65l-98 -98z M377 735q0 -119 67.5 -191.5t172 -72.5t176 71.5t71.5 192.5t-70.5 188.5t-177 67.5t-173 -66.5t-66.5 -189.5z" />
<glyph unicode="&#xa5;" d="M72 1448v25h184l360 -625l361 625h168v-25l-449 -743v-89h328v-145h-328v-143h328v-144h-328v-184h-184v184h-319v144h319v143h-319v145h319v76z" />
<glyph unicode="&#xa6;" horiz-adv-x="559" d="M231 319h97v-768h-97v768zM231 831v768h97v-768h-97z" />
<glyph unicode="&#xa7;" horiz-adv-x="1087" d="M96 559q0 98 56 168h104q-16 -29 -16 -80q0 -49 6 -73.5t39.5 -63.5t105.5 -86l250 -160q240 -156 240 -368q0 -158 -119 -251.5t-297 -93.5q-80 0 -170 28t-127 52v168h8q47 -41 127 -71.5t168 -30.5q233 0 234 190q0 78 -37 135.5t-123 112.5l-248 162 q-66 43 -98.5 67.5t-67.5 78t-35 116.5zM209 1145q0 158 117.5 251t298.5 93q80 0 171 -27.5t124 -52.5v-170h-9q-47 41 -126.5 72.5t-168.5 31.5q-231 0 -231 -190q0 -78 37 -135t123 -115l248 -160q66 -41 98.5 -66.5t66 -79.5t33.5 -118q0 -98 -55 -168h-105q16 33 17 80 q0 49 -5 73.5t-40 64.5t-107 87l-247 160q-240 154 -240 369z" />
<glyph unicode="&#xa8;" horiz-adv-x="1103" d="M248 1313q0 49 28.5 79.5t75.5 30.5t76 -30.5t29 -79.5t-29 -81t-76 -32t-75.5 32t-28.5 81zM664 1313q0 49 28.5 79.5t75.5 30.5t75.5 -30.5t28.5 -79.5t-28.5 -81t-75.5 -32t-75.5 32t-28.5 81z" />
<glyph unicode="&#xa9;" horiz-adv-x="1759" d="M96 735q0 334 222.5 544t562.5 210q338 0 561 -210t223 -544q0 -332 -223 -541.5t-561 -209.5q-340 0 -562.5 209.5t-222.5 541.5zM223 735q0 -279 180.5 -459t477.5 -180q295 0 475 180.5t180 458.5q0 281 -180 461t-475 180q-297 0 -477.5 -180t-180.5 -461zM479 735 q0 213 137.5 315.5t344.5 102.5q78 0 192 -33v-96q-115 33 -192 33q-141 0 -230.5 -81t-89.5 -241t89 -239.5t231 -79.5q94 0 192 33v-97q-98 -33 -192 -33q-131 0 -235.5 39t-175.5 135.5t-71 241.5z" />
<glyph unicode="&#xaa;" horiz-adv-x="839" d="M55 889q0 123 113 193.5t281 70.5h88v72q0 74 -46.5 100.5t-146.5 26.5q-96 0 -209 -47h-14v127q147 57 256 57q227 0 311 -137v-504q0 -45 17.5 -58.5t62.5 -13.5h47v-104q-31 -16 -110 -17q-98 0 -142 72h-18q-115 -72 -217 -72q-129 0 -201 60.5t-72 173.5zM209 897 q0 -66 36 -93.5t115 -27.5q72 0 177 58v198h-97q-231 0 -231 -135z" />
<glyph unicode="&#xab;" horiz-adv-x="1120" d="M63 479v193l449 305h33v-137l-369 -265l369 -264v-135h-33zM545 479v193l446 305h33v-137l-369 -265l369 -264v-135h-33z" />
<glyph unicode="&#xac;" d="M129 655v97h958v-543h-96v446h-862z" />
<glyph unicode="&#xad;" horiz-adv-x="831" d="M129 641v127h576v-127h-576z" />
<glyph unicode="&#xae;" horiz-adv-x="1759" d="M96 735q0 334 222.5 544t562.5 210q338 0 561 -210t223 -544q0 -332 -223 -541.5t-561 -209.5q-340 0 -562.5 209.5t-222.5 541.5zM223 735q0 -279 180.5 -459t477.5 -180q295 0 475 180.5t180 458.5q0 281 -180 461t-475 180q-297 0 -477.5 -180t-180.5 -461zM575 319 v834h273q336 0 336 -256q0 -84 -44 -146.5t-124 -86.5l190 -328v-17h-166l-159 289h-146v-289h-160zM735 705h113q76 0 126 50t50 142q0 80 -49 120t-127 40h-113v-352z" />
<glyph unicode="&#xaf;" horiz-adv-x="1103" d="M248 1255v105h641v-105h-641z" />
<glyph unicode="&#xb0;" horiz-adv-x="872" d="M55 1071q0 174 93.5 296t283.5 122q195 0 289 -121t94 -297t-95 -296t-288 -120q-190 0 -283.5 119t-93.5 297zM215 1071q0 -278 217 -278q117 0 170 78.5t53 199.5q0 123 -53 202t-170 79q-217 0 -217 -281z" />
<glyph unicode="&#xb1;" d="M129 0h958v-96h-958v96zM129 655v97h430v448h96v-448h432v-97h-432v-446h-96v446h-430z" />
<glyph unicode="&#xb2;" horiz-adv-x="872" d="M80 672v96l217 143q160 109 223.5 176.5t63.5 137.5q0 57 -46 92t-139 35q-137 0 -264 -80h-14v143q115 74 295 74q166 0 251 -70.5t85 -193.5q0 -57 -18.5 -105.5t-64.5 -93.5t-89 -76.5t-123 -85.5l-97 -63h441v-129h-721z" />
<glyph unicode="&#xb3;" horiz-adv-x="872" d="M80 705v126h16q123 -47 281 -47q248 0 248 119q0 113 -226 113h-135v104l121 17q90 12 148.5 43.5t58.5 83.5q0 61 -50 82.5t-157 21.5q-109 0 -250 -55h-14v127q127 49 278 49q344 0 344 -201q0 -143 -159 -192q94 -12 147 -66.5t53 -132.5q0 -117 -109.5 -179.5 t-289.5 -62.5q-172 0 -305 50z" />
<glyph unicode="&#xb4;" horiz-adv-x="1103" d="M520 1153v31l295 289h176v-33l-375 -287h-96z" />
<glyph unicode="&#xb5;" horiz-adv-x="1175" d="M160 -449v1457l121 32h47v-591q0 -152 49 -226q57 -94 207 -94q129 0 247 94v785l121 32h47v-1024l-88 -32h-80v96h-16q-121 -96 -287 -96q-115 0 -200 51v-484h-168z" />
<glyph unicode="&#xb6;" horiz-adv-x="1536" d="M63 897.5q0 276.5 163 426t415 149.5h256v-1922h-129v768h-127q-252 0 -415 151t-163 427.5zM1153 -449v1922h160v-1922h-160z" />
<glyph unicode="&#xb7;" horiz-adv-x="575" d="M160 801q0 47 33.5 78.5t87 31.5t86 -30.5t32.5 -79.5t-32.5 -81t-86 -32t-87 32t-33.5 81z" />
<glyph unicode="&#xb8;" horiz-adv-x="1103" d="M336 -319h16q88 -33 152 -33q113 0 112 80q0 27 -20.5 47t-35.5 26t-56 23l-64 24v23l88 96h113l-74 -80l49 -16q119 -37 119 -143q0 -80 -62.5 -128.5t-168.5 -48.5q-86 0 -168 41v89z" />
<glyph unicode="&#xb9;" horiz-adv-x="872" d="M104 1200v143l383 138h97v-809h-168v624l-295 -96h-17z" />
<glyph unicode="&#xba;" horiz-adv-x="864" d="M55 1065q0 193 102.5 308.5t274.5 115.5t274.5 -116t102.5 -308q0 -190 -101.5 -300t-275.5 -110t-275.5 109.5t-101.5 300.5zM215 1065q0 -135 59.5 -208t157.5 -73t156.5 73t58.5 208q0 137 -57.5 216t-157.5 79q-98 0 -157.5 -80t-59.5 -215z" />
<glyph unicode="&#xbb;" horiz-adv-x="1120" d="M96 176v135l369 264l-369 265v137h33l446 -305v-193l-446 -303h-33zM575 176v135l369 264l-369 265v137h33l449 -305v-193l-449 -303h-33z" />
<glyph unicode="&#xbc;" horiz-adv-x="1792" d="M104 1200v143l383 138h97v-809h-168v624l-295 -96h-17zM449 0v25l798 1448h96v-25l-798 -1448h-96zM983 176v127l465 512h143v-518h146v-121h-146v-176h-159v176h-449zM1120 297h312v336z" />
<glyph unicode="&#xbd;" horiz-adv-x="1792" d="M104 1200v143l383 138h97v-809h-168v624l-295 -96h-17zM449 0v25l798 1448h96v-25l-798 -1448h-96zM999 0v96l218 144q160 109 223 176t63 137q0 57 -46 92t-136 35q-141 0 -264 -80h-17v143q111 72 295 72q166 0 251 -69.5t85 -192.5q0 -111 -67.5 -183.5t-227.5 -176.5 l-96 -64h440v-129h-721z" />
<glyph unicode="&#xbe;" horiz-adv-x="1792" d="M80 705v126h16q123 -47 281 -47q248 0 248 119q0 113 -226 113h-135v104l121 17q90 12 148.5 43.5t58.5 83.5q0 61 -50 82.5t-157 21.5q-109 0 -250 -55h-14v127q127 49 278 49q344 0 344 -201q0 -143 -159 -192q94 -12 147 -66.5t53 -132.5q0 -117 -109.5 -179.5 t-289.5 -62.5q-172 0 -305 50zM449 0v25l798 1448h96v-25l-798 -1448h-96zM983 176v127l465 512h143v-518h146v-121h-146v-176h-159v176h-449zM1120 297h312v336z" />
<glyph unicode="&#xbf;" horiz-adv-x="847" d="M80 319q0 98 38 179.5t76.5 122.5t124.5 114l130 113v176h159v-160q0 -37 -2 -50t-15 -31.5t-46 -47.5l-96 -80q-209 -174 -209 -303q0 -223 272 -223h209v-129h-242q-180 0 -289.5 88t-109.5 231zM424 1376q0 51 26.5 82t78 31t78 -31t26.5 -82t-26.5 -81.5t-78 -30.5 t-78 30.5t-26.5 81.5z" />
<glyph unicode="&#xc0;" d="M0 0v25l520 1448h207l490 -1448v-25h-185l-133 399h-592l-139 -399h-168zM334 1905v32h174l297 -288v-31h-96zM360 545h494l-238 727z" />
<glyph unicode="&#xc1;" d="M0 0v25l520 1448h207l490 -1448v-25h-185l-133 399h-592l-139 -399h-168zM360 545h494l-238 727zM432 1618v31l295 288h176v-32l-375 -287h-96z" />
<glyph unicode="&#xc2;" d="M0 0v25l520 1448h207l490 -1448v-25h-185l-133 399h-592l-139 -399h-168zM311 1618v31l224 288h145l223 -288v-31h-88l-209 215l-207 -215h-88zM360 545h494l-238 727z" />
<glyph unicode="&#xc3;" d="M0 0v25l520 1448h207l490 -1448v-25h-185l-133 399h-592l-139 -399h-168zM231 1618v31q6 121 60.5 204.5t154.5 83.5q59 0 108.5 -33.5t77 -74.5t63.5 -75t73 -34q33 0 56.5 18.5t35.5 55.5t17.5 67.5t9.5 75.5h96v-32q-6 -121 -60.5 -204t-154.5 -83q-59 0 -108.5 34 t-77 73.5t-63.5 73.5t-73 34q-35 0 -58 -18.5t-34.5 -55.5t-16.5 -66.5t-9 -74.5h-97zM360 545h494l-238 727z" />
<glyph unicode="&#xc4;" d="M0 0v25l520 1448h207l490 -1448v-25h-185l-133 399h-592l-139 -399h-168zM295 1778q0 49 28.5 79.5t75.5 30.5t76 -30.5t29 -79.5t-29 -81t-76 -32t-75.5 32t-28.5 81zM360 545h494l-238 727zM711 1778q0 49 28.5 79.5t75.5 30.5t76 -30.5t29 -79.5t-29 -81t-76 -32 t-75.5 32t-28.5 81z" />
<glyph unicode="&#xc5;" d="M0 0v25l520 1448h207l490 -1448v-25h-185l-133 399h-592l-139 -399h-168zM336 1778q0 84 75.5 141t194.5 57t196 -57t77 -141q0 -86 -77 -143.5t-196 -57.5t-194.5 57.5t-75.5 143.5zM360 545h494l-238 727zM432 1778q0 -121 174 -121q176 0 176 121q0 119 -176 118 q-174 0 -174 -118z" />
<glyph unicode="&#xc6;" horiz-adv-x="1665" d="M0 0v33l608 1440h928v-146h-553v-496h490v-143h-490v-545h586v-143h-760v399h-477l-164 -399h-168zM389 545h420v782h-96z" />
<glyph unicode="&#xc7;" horiz-adv-x="1167" d="M72 735q0 336 198.5 545t497.5 209q209 0 319 -66v-143h-16q-127 63 -303 63q-238 0 -375 -161.5t-137 -429.5q0 -303 138 -463t374 -160q164 0 319 80h17v-162q-152 -63 -369 -63q-313 0 -488 213t-175 538zM465 -319h16q88 -33 152 -33q113 0 112 80q0 27 -20 47 t-35.5 26t-56.5 23l-64 24v23l88 96h113l-74 -80l49 -16q119 -37 119 -143q0 -80 -62.5 -128.5t-168.5 -48.5q-86 0 -168 41v89z" />
<glyph unicode="&#xc8;" horiz-adv-x="1056" d="M184 0v1473h744v-146h-568v-496h504v-143h-504v-545h601v-143h-777zM254 1905v32h174l297 -288v-31h-96z" />
<glyph unicode="&#xc9;" horiz-adv-x="1056" d="M184 0v1473h744v-146h-568v-496h504v-143h-504v-545h601v-143h-777zM362 1618v31l295 288h177v-32l-375 -287h-97z" />
<glyph unicode="&#xca;" horiz-adv-x="1056" d="M184 0v1473h744v-146h-568v-496h504v-143h-504v-545h601v-143h-777zM252 1618v31l223 288h146l223 -288v-31h-88l-209 215l-207 -215h-88z" />
<glyph unicode="&#xcb;" horiz-adv-x="1056" d="M184 0v1473h744v-146h-568v-496h504v-143h-504v-545h601v-143h-777zM236 1778q0 49 28.5 79.5t75.5 30.5t75.5 -30.5t28.5 -79.5t-28.5 -81t-75.5 -32t-75.5 32t-28.5 81zM651 1778q0 49 29 79.5t76 30.5t75.5 -30.5t28.5 -79.5t-28.5 -81t-75.5 -32t-76 32t-29 81z" />
<glyph unicode="&#xcc;" horiz-adv-x="552" d="M20 1905v32h175l297 -288v-31h-97zM184 0v1473h176v-1473h-176z" />
<glyph unicode="&#xcd;" horiz-adv-x="552" d="M59 1618v31l295 288h176v-32l-374 -287h-97zM184 0v1473h176v-1473h-176z" />
<glyph unicode="&#xce;" horiz-adv-x="552" d="M-20 1618v31l223 288h145l223 -288v-31h-88l-209 215l-206 -215h-88zM184 0v1473h176v-1473h-176z" />
<glyph unicode="&#xcf;" horiz-adv-x="552" d="M-37 1778q0 49 28.5 79.5t76 30.5t76 -30.5t28.5 -79.5t-28.5 -81t-76 -32t-76 32t-28.5 81zM184 0v1473h176v-1473h-176zM379 1778q0 49 28.5 79.5t75.5 30.5t76 -30.5t29 -79.5t-29 -81t-76 -32t-75.5 32t-28.5 81z" />
<glyph unicode="&#xd0;" horiz-adv-x="1409" d="M55 688v143h129v642h416q358 0 546.5 -185.5t188.5 -535.5q0 -334 -175 -543t-527 -209h-449v688h-129zM360 143h265q260 0 394 166t134 459q0 266 -143.5 412.5t-417.5 146.5h-232v-496h345v-143h-345v-545z" />
<glyph unicode="&#xd1;" horiz-adv-x="1519" d="M184 0v1473h168l801 -1162v1162h174v-1473h-160l-807 1176v-1176h-176zM414 1618v31q6 121 60 204.5t155 83.5q59 0 108 -33.5t77 -74.5t63.5 -75t72.5 -34q33 0 56.5 18.5t36 55.5t17.5 67.5t9 75.5h96v-32q-6 -121 -60 -204t-155 -83q-59 0 -108 34t-77 73.5 t-63.5 73.5t-72.5 34q-35 0 -58.5 -18.5t-35 -55.5t-16.5 -66.5t-9 -74.5h-96z" />
<glyph unicode="&#xd2;" horiz-adv-x="1409" d="M72 735q0 326 169 540t464 214q305 0 467.5 -212t162.5 -542q0 -315 -168.5 -533t-461.5 -218q-307 0 -470 208.5t-163 542.5zM256 735q0 -262 115 -434t334 -172q217 0 332.5 172t115.5 434t-115.5 435t-332.5 173q-147 0 -251 -84.5t-151 -219t-47 -304.5zM449 1905v32 h174l297 -288v-31h-97z" />
<glyph unicode="&#xd3;" horiz-adv-x="1409" d="M72 735q0 326 169 540t464 214q305 0 467.5 -212t162.5 -542q0 -315 -168.5 -533t-461.5 -218q-307 0 -470 208.5t-163 542.5zM256 735q0 -262 115 -434t334 -172q217 0 332.5 172t115.5 434t-115.5 435t-332.5 173q-147 0 -251 -84.5t-151 -219t-47 -304.5zM512 1618v31 l295 288h176v-32l-375 -287h-96z" />
<glyph unicode="&#xd4;" horiz-adv-x="1409" d="M72 735q0 326 169 540t464 214q305 0 467.5 -212t162.5 -542q0 -315 -168.5 -533t-461.5 -218q-307 0 -470 208.5t-163 542.5zM256 735q0 -262 115 -434t334 -172q217 0 332.5 172t115.5 434t-115.5 435t-332.5 173q-147 0 -251 -84.5t-151 -219t-47 -304.5zM408 1618v31 l223 288h145l223 -288v-31h-88l-209 215l-206 -215h-88z" />
<glyph unicode="&#xd5;" horiz-adv-x="1409" d="M72 735q0 326 169 540t464 214q305 0 467.5 -212t162.5 -542q0 -315 -168.5 -533t-461.5 -218q-307 0 -470 208.5t-163 542.5zM256 735q0 -262 115 -434t334 -172q217 0 332.5 172t115.5 434t-115.5 435t-332.5 173q-147 0 -251 -84.5t-151 -219t-47 -304.5zM328 1618v31 q6 121 60 204.5t155 83.5q59 0 108 -33.5t77 -74.5t63.5 -75t72.5 -34q33 0 56.5 18.5t36 55.5t17.5 67.5t9 75.5h96v-32q-6 -121 -60 -204t-155 -83q-59 0 -108 34t-77 73.5t-63.5 73.5t-72.5 34q-35 0 -58.5 -18.5t-35 -55.5t-16.5 -66.5t-9 -74.5h-96z" />
<glyph unicode="&#xd6;" horiz-adv-x="1409" d="M72 735q0 326 169 540t464 214q305 0 467.5 -212t162.5 -542q0 -315 -168.5 -533t-461.5 -218q-307 0 -470 208.5t-163 542.5zM256 735q0 -262 115 -434t334 -172q217 0 332.5 172t115.5 434t-115.5 435t-332.5 173q-147 0 -251 -84.5t-151 -219t-47 -304.5zM391 1778 q0 49 29 79.5t76 30.5t75.5 -30.5t28.5 -79.5t-28.5 -81t-75.5 -32t-76 32t-29 81zM807 1778q0 49 28.5 79.5t75.5 30.5t76 -30.5t29 -79.5t-29 -81t-76 -32t-75.5 32t-28.5 81z" />
<glyph unicode="&#xd7;" d="M129 240v129l393 327l-393 328v129h14l465 -385l463 385h16v-129l-393 -328l393 -327v-129h-16l-463 385l-465 -385h-14z" />
<glyph unicode="&#xd8;" horiz-adv-x="1409" d="M63 0v33l152 184q-143 205 -143 518q0 326 169 540t464 214q256 0 423 -164l119 148h96v-33l-153 -189q145 -197 145 -516q0 -315 -168.5 -533t-461.5 -218q-260 0 -426 159l-119 -143h-97zM256 735q0 -213 78 -373l686 832q-118 149 -315 149q-147 0 -251 -84.5 t-151 -219t-47 -304.5zM387 279q121 -150 318 -150q217 0 332.5 172t115.5 434q0 219 -82 375z" />
<glyph unicode="&#xd9;" horiz-adv-x="1423" d="M184 528v945h176v-914q0 -430 353 -430q344 0 344 430v914h176v-945q0 -262 -141.5 -403t-395.5 -141q-246 0 -379 140t-133 404zM436 1905v32h174l297 -288v-31h-96z" />
<glyph unicode="&#xda;" horiz-adv-x="1423" d="M184 528v945h176v-914q0 -430 353 -430q344 0 344 430v914h176v-945q0 -262 -141.5 -403t-395.5 -141q-246 0 -379 140t-133 404zM520 1618v31l295 288h176v-32l-375 -287h-96z" />
<glyph unicode="&#xdb;" horiz-adv-x="1423" d="M184 528v945h176v-914q0 -430 353 -430q344 0 344 430v914h176v-945q0 -262 -141.5 -403t-395.5 -141q-246 0 -379 140t-133 404zM416 1618v31l223 288h145l224 -288v-31h-88l-209 215l-207 -215h-88z" />
<glyph unicode="&#xdc;" horiz-adv-x="1423" d="M184 528v945h176v-914q0 -430 353 -430q344 0 344 430v914h176v-945q0 -262 -141.5 -403t-395.5 -141q-246 0 -379 140t-133 404zM399 1778q0 49 29 79.5t76 30.5t75.5 -30.5t28.5 -79.5t-28.5 -81t-75.5 -32t-76 32t-29 81zM815 1778q0 49 28.5 79.5t76 30.5t76 -30.5 t28.5 -79.5t-28.5 -81t-76 -32t-76 32t-28.5 81z" />
<glyph unicode="&#xdd;" horiz-adv-x="1056" d="M-8 1448v25h184l361 -746l360 746h168v-25l-449 -858v-590h-184v575zM412 1618v31l295 288h176v-32l-375 -287h-96z" />
<glyph unicode="&#xde;" horiz-adv-x="1200" d="M184 0v1473h176v-256h232q252 0 390 -117t138 -332q0 -244 -134 -378t-394 -134h-232v-256h-176zM360 399h232q344 0 344 369q0 143 -90 223t-254 80h-232v-672z" />
<glyph unicode="&#xdf;" horiz-adv-x="1304" d="M41 864v144h160v104q0 193 135 308.5t328 115.5q168 0 280.5 -71.5t112.5 -217.5q0 -29 -5 -56.5t-17.5 -52t-21.5 -42t-28.5 -39t-29 -30.5t-30 -28.5t-22.5 -21.5l-29.5 -29.5t-33 -34t-26.5 -33t-22.5 -40t-7.5 -39.5q0 -57 28 -89t99 -71l113 -66q184 -96 184 -272 q0 -147 -99 -233t-269 -86q-182 0 -281 49v160h16q123 -63 265 -64q201 0 200 160q0 49 -22.5 81.5t-81.5 69.5l-96 56q-113 59 -168.5 124.5t-55.5 172.5q0 27 9.5 53t18.5 45.5t33.5 47.5t37 41t47.5 46t47 45q80 84 80 176q0 84 -68.5 123t-165.5 39q-125 0 -205.5 -81 t-80.5 -232v-1096h-168v864h-160z" />
<glyph unicode="&#xe0;" horiz-adv-x="1024" d="M72 281q0 106 68.5 178.5t163.5 102.5t208 30h152v129q0 94 -51.5 135t-172.5 41q-129 0 -256 -66h-16v146q147 63 311 63q154 0 243 -59t109 -133v-625q0 -59 15.5 -76.5t64.5 -17.5h72v-129q-61 -16 -135 -16q-55 0 -102.5 25.5t-61.5 70.5h-12q-37 -37 -119 -66.5 t-162 -29.5q-141 0 -230 73.5t-89 223.5zM238 1440v33h174l297 -289v-31h-97zM240 289q0 -176 192 -176q59 0 127 28.5t105 67.5v256h-160q-264 0 -264 -176z" />
<glyph unicode="&#xe1;" horiz-adv-x="1024" d="M72 281q0 106 68.5 178.5t163.5 102.5t208 30h152v129q0 94 -51.5 135t-172.5 41q-129 0 -256 -66h-16v146q147 63 311 63q154 0 243 -59t109 -133v-625q0 -59 15.5 -76.5t64.5 -17.5h72v-129q-61 -16 -135 -16q-55 0 -102.5 25.5t-61.5 70.5h-12q-37 -37 -119 -66.5 t-162 -29.5q-141 0 -230 73.5t-89 223.5zM240 289q0 -176 192 -176q59 0 127 28.5t105 67.5v256h-160q-264 0 -264 -176zM356 1153v31l295 289h176v-33l-374 -287h-97z" />
<glyph unicode="&#xe2;" horiz-adv-x="1024" d="M72 281q0 106 68.5 178.5t163.5 102.5t208 30h152v129q0 94 -51.5 135t-172.5 41q-129 0 -256 -66h-16v146q147 63 311 63q154 0 243 -59t109 -133v-625q0 -59 15.5 -76.5t64.5 -17.5h72v-129q-61 -16 -135 -16q-55 0 -102.5 25.5t-61.5 70.5h-12q-37 -37 -119 -66.5 t-162 -29.5q-141 0 -230 73.5t-89 223.5zM207 1153v31l223 289h145l224 -289v-31h-88l-209 215l-207 -215h-88zM240 289q0 -176 192 -176q59 0 127 28.5t105 67.5v256h-160q-264 0 -264 -176z" />
<glyph unicode="&#xe3;" horiz-adv-x="1024" d="M72 281q0 106 68.5 178.5t163.5 102.5t208 30h152v129q0 94 -51.5 135t-172.5 41q-129 0 -256 -66h-16v146q147 63 311 63q154 0 243 -59t109 -133v-625q0 -59 15.5 -76.5t64.5 -17.5h72v-129q-61 -16 -135 -16q-55 0 -102.5 25.5t-61.5 70.5h-12q-37 -37 -119 -66.5 t-162 -29.5q-141 0 -230 73.5t-89 223.5zM135 1153v31q6 121 60.5 205t154.5 84q59 0 108.5 -34t77 -75t63.5 -75t73 -34q33 0 56.5 18.5t35.5 55.5t17 67.5t10 76.5h96v-33q-6 -121 -60.5 -204t-154.5 -83q-59 0 -108.5 34t-77 73.5t-63.5 73.5t-73 34q-35 0 -58.5 -18.5 t-34.5 -55.5t-16.5 -66.5t-9.5 -74.5h-96zM240 289q0 -176 192 -176q59 0 127 28.5t105 67.5v256h-160q-264 0 -264 -176z" />
<glyph unicode="&#xe4;" horiz-adv-x="1024" d="M72 281q0 106 68.5 178.5t163.5 102.5t208 30h152v129q0 94 -51.5 135t-172.5 41q-129 0 -256 -66h-16v146q147 63 311 63q154 0 243 -59t109 -133v-625q0 -59 15.5 -76.5t64.5 -17.5h72v-129q-61 -16 -135 -16q-55 0 -102.5 25.5t-61.5 70.5h-12q-37 -37 -119 -66.5 t-162 -29.5q-141 0 -230 73.5t-89 223.5zM201 1313q0 49 28.5 79.5t75.5 30.5t76 -30.5t29 -79.5t-29 -81t-76 -32t-75.5 32t-28.5 81zM240 289q0 -176 192 -176q59 0 127 28.5t105 67.5v256h-160q-264 0 -264 -176zM616 1313q0 49 29 79.5t76 30.5t75.5 -30.5t28.5 -79.5 t-28.5 -81t-75.5 -32t-76 32t-29 81z" />
<glyph unicode="&#xe5;" horiz-adv-x="1024" d="M72 281q0 106 68.5 178.5t163.5 102.5t208 30h152v129q0 94 -51.5 135t-172.5 41q-129 0 -256 -66h-16v146q147 63 311 63q154 0 243 -59t109 -133v-625q0 -59 15.5 -76.5t64.5 -17.5h72v-129q-61 -16 -135 -16q-55 0 -102.5 25.5t-61.5 70.5h-12q-37 -37 -119 -66.5 t-162 -29.5q-141 0 -230 73.5t-89 223.5zM227 1313q0 84 76 141t194.5 57t195.5 -57t77 -141q0 -86 -77 -143.5t-195.5 -57.5t-194.5 57.5t-76 143.5zM240 289q0 -176 192 -176q59 0 127 28.5t105 67.5v256h-160q-264 0 -264 -176zM324 1313q0 -121 174 -121q176 0 176 121 q0 119 -176 119q-174 0 -174 -119z" />
<glyph unicode="&#xe6;" horiz-adv-x="1632" d="M72 289q0 154 134 228.5t314 74.5h144v129q0 94 -51.5 135t-172.5 41q-129 0 -256 -66h-16v146q131 63 307 63q233 0 324 -149q137 150 350 149q176 0 277.5 -94t101.5 -241q0 -74 -17 -168l-671 -25q0 -186 92 -284.5t248 -98.5q152 0 276 64h17v-146q-113 -63 -324 -63 q-236 0 -365 151q-172 -152 -393 -151q-139 0 -229 77.5t-90 227.5zM240 289q0 -90 57 -133t147 -43q143 0 281 114q-53 103 -61 238h-158q-119 0 -192.5 -43t-73.5 -133zM854 641l506 23v24q0 104 -56.5 156.5t-154.5 52.5q-113 0 -191.5 -62.5t-101.5 -179.5z" />
<glyph unicode="&#xe7;" horiz-adv-x="960" d="M80 512q0 250 159.5 389t385.5 139q166 0 264 -49v-143h-17q-74 49 -247 49q-158 0 -263.5 -98.5t-105.5 -270.5q0 -197 97.5 -298t254.5 -101q145 0 273 64h16v-146q-129 -63 -305 -63q-221 0 -366.5 137t-145.5 391zM340 -319h16q88 -33 152 -33q113 0 113 80 q0 27 -20.5 47t-36 26t-56.5 23l-64 24v23l88 96h113l-74 -80l50 -16q119 -37 118 -143q0 -80 -62.5 -128.5t-168.5 -48.5q-86 0 -168 41v89z" />
<glyph unicode="&#xe8;" horiz-adv-x="1040" d="M80 512q0 244 140 386t347 142q176 0 276.5 -93t100.5 -242q0 -74 -16 -168l-672 -23v-2q0 -188 90 -285.5t254 -97.5q147 0 272 64h17v-146q-113 -63 -322 -63q-223 0 -355 139t-132 389zM270 641l506 23v24q0 209 -209 209q-111 0 -191.5 -62.5t-103.5 -179.5z M285 1440v33h174l297 -289v-31h-97z" />
<glyph unicode="&#xe9;" horiz-adv-x="1040" d="M80 512q0 244 140 386t347 142q176 0 276.5 -93t100.5 -242q0 -74 -16 -168l-672 -23v-2q0 -188 90 -285.5t254 -97.5q147 0 272 64h17v-146q-113 -63 -322 -63q-223 0 -355 139t-132 389zM270 641l506 23v24q0 209 -209 209q-111 0 -191.5 -62.5t-103.5 -179.5z M352 1153v31l295 289h176v-33l-374 -287h-97z" />
<glyph unicode="&#xea;" horiz-adv-x="1040" d="M80 512q0 244 140 386t347 142q176 0 276.5 -93t100.5 -242q0 -74 -16 -168l-672 -23v-2q0 -188 90 -285.5t254 -97.5q147 0 272 64h17v-146q-113 -63 -322 -63q-223 0 -355 139t-132 389zM244 1153v31l223 289h145l224 -289v-31h-88l-209 215l-207 -215h-88zM270 641 l506 23v24q0 209 -209 209q-111 0 -191.5 -62.5t-103.5 -179.5z" />
<glyph unicode="&#xeb;" horiz-adv-x="1040" d="M80 512q0 244 140 386t347 142q176 0 276.5 -93t100.5 -242q0 -74 -16 -168l-672 -23v-2q0 -188 90 -285.5t254 -97.5q147 0 272 64h17v-146q-113 -63 -322 -63q-223 0 -355 139t-132 389zM227 1313q0 49 29 79.5t76 30.5t75.5 -30.5t28.5 -79.5t-28.5 -81t-75.5 -32 t-76 32t-29 81zM270 641l506 23v24q0 209 -209 209q-111 0 -191.5 -62.5t-103.5 -179.5zM643 1313q0 49 28.5 79.5t76 30.5t76 -30.5t28.5 -79.5t-28.5 -81t-76 -32t-76 32t-28.5 81z" />
<glyph unicode="&#xec;" horiz-adv-x="503" d="M-23 1440v33h175l297 -289v-31h-97zM168 0v1008l121 32h47v-1040h-168z" />
<glyph unicode="&#xed;" horiz-adv-x="503" d="M55 1153v31l295 289h176v-33l-374 -287h-97zM168 0v1008l121 32h47v-1040h-168z" />
<glyph unicode="&#xee;" horiz-adv-x="503" d="M-43 1153v31l223 289h146l223 -289v-31h-88l-209 215l-207 -215h-88zM168 0v1008l121 32h47v-1040h-168z" />
<glyph unicode="&#xef;" horiz-adv-x="503" d="M-59 1313q0 49 28.5 79.5t75.5 30.5t76 -30.5t29 -79.5t-29 -81t-76 -32t-75.5 32t-28.5 81zM168 0v1008l121 32h47v-1040h-168zM356 1313q0 49 29 79.5t76 30.5t75.5 -30.5t28.5 -79.5t-28.5 -81t-75.5 -32t-76 32t-29 81z" />
<glyph unicode="&#xf0;" horiz-adv-x="1112" d="M80 479q0 254 149.5 399.5t370.5 145.5q94 0 160 -33h16v209h-336v135h336v168l121 33h47v-201h113v-135h-113v-1184l-96 -32h-72v79h-16q-109 -80 -256 -79q-186 0 -305 131t-119 364zM256 479q0 -166 80 -258t223 -92q94 0 217 64v671q-80 17 -168 17 q-147 0 -249.5 -99.5t-102.5 -302.5z" />
<glyph unicode="&#xf1;" horiz-adv-x="1175" d="M168 0v1008l121 32h47v-112h16q121 96 289 96q190 0 287 -127q80 -106 80 -289v-608h-168v559q0 150 -47 225q-61 96 -209 97q-127 0 -248 -97v-784h-168zM213 1153v31q6 121 60.5 205t154.5 84q59 0 108.5 -34t77 -75t63.5 -75t73 -34q33 0 56 18.5t35.5 55.5t17.5 67.5 t9 76.5h97v-33q-6 -121 -60.5 -204t-154.5 -83q-59 0 -108.5 34t-77 73.5t-63.5 73.5t-73 34q-35 0 -58.5 -18.5t-34.5 -55.5t-16.5 -66.5t-9.5 -74.5h-96z" />
<glyph unicode="&#xf2;" horiz-adv-x="1103" d="M80 512q0 246 134 387t339 141q217 0 344 -139t127 -389q0 -244 -134 -386t-337 -142q-219 0 -346 139t-127 389zM256 512q0 -182 77 -282.5t220 -100.5q141 0 218 101.5t77 281.5q0 184 -75 284.5t-220 100.5q-143 0 -220 -101.5t-77 -283.5zM276 1440v33h175l297 -289 v-31h-97z" />
<glyph unicode="&#xf3;" horiz-adv-x="1103" d="M80 512q0 246 134 387t339 141q217 0 344 -139t127 -389q0 -244 -134 -386t-337 -142q-219 0 -346 139t-127 389zM256 512q0 -182 77 -282.5t220 -100.5q141 0 218 101.5t77 281.5q0 184 -75 284.5t-220 100.5q-143 0 -220 -101.5t-77 -283.5zM356 1153v31l295 289h176 v-33l-374 -287h-97z" />
<glyph unicode="&#xf4;" horiz-adv-x="1103" d="M80 512q0 246 134 387t339 141q217 0 344 -139t127 -389q0 -244 -134 -386t-337 -142q-219 0 -346 139t-127 389zM256 512q0 -182 77 -282.5t220 -100.5q141 0 218 101.5t77 281.5q0 184 -75 284.5t-220 100.5q-143 0 -220 -101.5t-77 -283.5zM256 1153v31l223 289h146 l223 -289v-31h-88l-209 215l-207 -215h-88z" />
<glyph unicode="&#xf5;" horiz-adv-x="1103" d="M80 512q0 246 134 387t339 141q217 0 344 -139t127 -389q0 -244 -134 -386t-337 -142q-219 0 -346 139t-127 389zM176 1153v31q6 121 60.5 205t154.5 84q59 0 108.5 -34t77 -75t63.5 -75t73 -34q33 0 56.5 18.5t35.5 55.5t17 67.5t9 76.5h97v-33q-6 -121 -60.5 -204 t-154.5 -83q-59 0 -108.5 34t-77 73.5t-63.5 73.5t-73 34q-35 0 -58.5 -18.5t-34.5 -55.5t-16.5 -66.5t-9.5 -74.5h-96zM256 512q0 -182 77 -282.5t220 -100.5q141 0 218 101.5t77 281.5q0 184 -75 284.5t-220 100.5q-143 0 -220 -101.5t-77 -283.5z" />
<glyph unicode="&#xf6;" horiz-adv-x="1103" d="M80 512q0 246 134 387t339 141q217 0 344 -139t127 -389q0 -244 -134 -386t-337 -142q-219 0 -346 139t-127 389zM240 1313q0 49 28.5 79.5t75.5 30.5t76 -30.5t29 -79.5t-29 -81t-76 -32t-75.5 32t-28.5 81zM256 512q0 -182 77 -282.5t220 -100.5q141 0 218 101.5 t77 281.5q0 184 -75 284.5t-220 100.5q-143 0 -220 -101.5t-77 -283.5zM655 1313q0 49 29 79.5t76 30.5t75.5 -30.5t28.5 -79.5t-28.5 -81t-75.5 -32t-76 32t-29 81z" />
<glyph unicode="&#xf7;" d="M129 655v97h958v-97h-958zM553 297v111h111v-111h-111zM553 999v113h111v-113h-111z" />
<glyph unicode="&#xf8;" horiz-adv-x="1103" d="M80 512q0 246 134 387t339 141q184 0 303 -100l72 84h63v-33l-86 -100q119 -141 119 -379q0 -244 -134 -386t-337 -142q-190 0 -315 108l-78 -92h-64v33l94 110q-111 135 -110 369zM256 512q0 -145 45 -233l453 538q-74 80 -201 80q-143 0 -220 -101.5t-77 -283.5z M342 215q74 -86 211 -86q141 0 218 101.5t77 281.5q0 150 -51 246z" />
<glyph unicode="&#xf9;" horiz-adv-x="1175" d="M160 399v609l121 32h47v-591q0 -152 49 -226q57 -94 207 -94q129 0 247 94v785l121 32h47v-1024l-88 -32h-80v96h-16q-121 -96 -287 -96q-193 0 -288 129q-80 109 -80 286zM260 1440v33h174l297 -289v-31h-96z" />
<glyph unicode="&#xfa;" horiz-adv-x="1175" d="M160 399v609l121 32h47v-591q0 -152 49 -226q57 -94 207 -94q129 0 247 94v785l121 32h47v-1024l-88 -32h-80v96h-16q-121 -96 -287 -96q-193 0 -288 129q-80 109 -80 286zM455 1153v31l295 289h176v-33l-375 -287h-96z" />
<glyph unicode="&#xfb;" horiz-adv-x="1175" d="M160 399v609l121 32h47v-591q0 -152 49 -226q57 -94 207 -94q129 0 247 94v785l121 32h47v-1024l-88 -32h-80v96h-16q-121 -96 -287 -96q-193 0 -288 129q-80 109 -80 286zM311 1153v31l224 289h145l223 -289v-31h-88l-209 215l-207 -215h-88z" />
<glyph unicode="&#xfc;" horiz-adv-x="1175" d="M160 399v609l121 32h47v-591q0 -152 49 -226q57 -94 207 -94q129 0 247 94v785l121 32h47v-1024l-88 -32h-80v96h-16q-121 -96 -287 -96q-193 0 -288 129q-80 109 -80 286zM283 1313q0 49 28.5 79.5t75.5 30.5t76 -30.5t29 -79.5t-29 -81t-76 -32t-75.5 32t-28.5 81z M698 1313q0 49 29 79.5t76 30.5t75.5 -30.5t28.5 -79.5t-28.5 -81t-75.5 -32t-76 32t-29 81z" />
<glyph unicode="&#xfd;" horiz-adv-x="927" d="M0 991v17h176l293 -783l283 783h168v-17l-400 -991l-176 -449h-168v25l199 432zM313 1153v31l295 289h176v-33l-374 -287h-97z" />
<glyph unicode="&#xfe;" horiz-adv-x="1112" d="M168 -449v1952l121 33h47v-592h16q109 80 256 80q190 0 307 -131t117 -365q0 -256 -142.5 -400t-361.5 -144q-111 0 -176 32h-16v-465h-168zM336 143q86 -22 176 -22q344 0 344 407q0 168 -77 260.5t-220 92.5q-96 0 -223 -66v-672z" />
<glyph unicode="&#xff;" horiz-adv-x="927" d="M0 991v17h176l293 -783l283 783h168v-17l-400 -991l-176 -449h-168v25l199 432zM172 1313q0 49 28.5 79.5t76 30.5t76 -30.5t28.5 -79.5t-28.5 -81t-76 -32t-76 32t-28.5 81zM588 1313q0 49 28.5 79.5t75.5 30.5t76 -30.5t29 -79.5t-29 -81t-76 -32t-75.5 32t-28.5 81z " />
<glyph unicode="&#x152;" horiz-adv-x="1871" d="M72 735q0 317 198.5 527.5t513.5 210.5h961v-146h-561v-496h504v-143h-504v-545h592v-143h-992q-342 0 -527 199.5t-185 535.5zM256 735q0 -281 138 -436.5t390 -155.5h215v1184h-215q-248 0 -388 -164t-140 -428z" />
<glyph unicode="&#x153;" horiz-adv-x="1816" d="M80 512q0 246 132 387t341 141q262 0 391 -211q66 102 170.5 156.5t228.5 54.5q176 0 276.5 -94t100.5 -241q0 -74 -16 -168l-680 -23v-2q0 -188 93 -285.5t259 -97.5q147 0 273 64h16v-146q-113 -63 -322 -63q-281 0 -407 204q-129 -205 -383 -204q-219 0 -346 139 t-127 389zM256 512q0 -182 77 -282.5t220 -100.5q141 0 218 101.5t77 281.5q0 184 -75 284.5t-220 100.5q-143 0 -220 -101.5t-77 -283.5zM1038 641l514 23v24q0 209 -209 209q-113 0 -196.5 -63.5t-106.5 -178.5z" />
<glyph unicode="&#x178;" horiz-adv-x="1056" d="M-8 1448v25h184l361 -746l360 746h168v-25l-449 -858v-590h-184v575zM229 1778q0 49 29 79.5t76 30.5t75.5 -30.5t28.5 -79.5t-28.5 -81t-75.5 -32t-76 32t-29 81zM645 1778q0 49 28.5 79.5t76 30.5t76 -30.5t28.5 -79.5t-28.5 -81t-76 -32t-76 32t-28.5 81z" />
<glyph unicode="&#x2c6;" horiz-adv-x="1103" d="M264 1153v31l223 289h146l223 -289v-31h-88l-209 215l-207 -215h-88z" />
<glyph unicode="&#x2dc;" horiz-adv-x="1103" d="M184 1153v31q6 121 60.5 205t154.5 84q59 0 108.5 -34t77 -75t63.5 -75t73 -34q33 0 56.5 18.5t35.5 55.5t17.5 67.5t9.5 76.5h96v-33q-6 -121 -60.5 -204t-154.5 -83q-59 0 -108.5 34t-77 73.5t-63.5 73.5t-73 34q-35 0 -58.5 -18.5t-34.5 -55.5t-16 -66.5t-9 -74.5h-97 z" />
<glyph unicode="&#x2000;" horiz-adv-x="988" />
<glyph unicode="&#x2001;" horiz-adv-x="1976" />
<glyph unicode="&#x2002;" horiz-adv-x="988" />
<glyph unicode="&#x2003;" horiz-adv-x="1976" />
<glyph unicode="&#x2004;" horiz-adv-x="658" />
<glyph unicode="&#x2005;" horiz-adv-x="494" />
<glyph unicode="&#x2006;" horiz-adv-x="329" />
<glyph unicode="&#x2007;" horiz-adv-x="329" />
<glyph unicode="&#x2008;" horiz-adv-x="247" />
<glyph unicode="&#x2009;" horiz-adv-x="395" />
<glyph unicode="&#x200a;" horiz-adv-x="109" />
<glyph unicode="&#x2010;" horiz-adv-x="831" d="M129 641v127h576v-127h-576z" />
<glyph unicode="&#x2011;" horiz-adv-x="831" d="M129 641v127h576v-127h-576z" />
<glyph unicode="&#x2012;" horiz-adv-x="831" d="M129 641v127h576v-127h-576z" />
<glyph unicode="&#x2013;" horiz-adv-x="1024" d="M129 641v127h768v-127h-768z" />
<glyph unicode="&#x2014;" horiz-adv-x="2048" d="M129 641v127h1792v-127h-1792z" />
<glyph unicode="&#x2018;" horiz-adv-x="528" d="M160 1159q0 201 143 314h129v-17q-57 -37 -100 -96.5t-43 -112.5v-14q29 -8 54.5 -37t25.5 -76q0 -57 -30 -84.5t-75 -27.5q-104 0 -104 151z" />
<glyph unicode="&#x2019;" horiz-adv-x="528" d="M96 1008v16q57 37 100.5 96.5t43.5 112.5v14q-29 8 -54.5 37t-25.5 76q0 57 29.5 85t74.5 28q104 0 105 -152q-1 -202 -146 -313h-127z" />
<glyph unicode="&#x201a;" horiz-adv-x="528" d="M96 -240q57 37 100.5 96.5t43.5 110.5v33q-80 20 -80 96q0 57 29.5 85t74.5 28q104 0 105 -154q-1 -200 -146 -311h-127v16z" />
<glyph unicode="&#x201c;" horiz-adv-x="880" d="M160 1159q0 201 143 314h129v-17q-57 -37 -100 -96.5t-43 -112.5v-14q29 -8 54.5 -37t25.5 -76q0 -57 -30 -84.5t-75 -27.5q-104 0 -104 151zM512 1159q0 201 143 314h129v-17q-57 -37 -100 -96.5t-43 -112.5v-14q29 -8 54.5 -37t25.5 -76q0 -57 -30 -84.5t-75 -27.5 q-104 0 -104 151z" />
<glyph unicode="&#x201d;" horiz-adv-x="880" d="M96 1008v16q57 37 100.5 96.5t43.5 112.5v14q-29 8 -54.5 37t-25.5 76q0 57 29.5 85t74.5 28q104 0 105 -152q-1 -202 -146 -313h-127zM449 1008v16q57 37 100 96.5t43 112.5v14q-31 8 -55.5 36t-24.5 77q0 57 28.5 85t75.5 28q104 0 105 -152q-1 -202 -146 -313h-126z " />
<glyph unicode="&#x201e;" horiz-adv-x="880" d="M96 -240q57 37 100.5 96.5t43.5 110.5v33q-80 20 -80 96q0 57 29.5 85t74.5 28q104 0 105 -154q-1 -200 -146 -311h-127v16zM449 -240q57 37 100 96.5t43 110.5v33q-80 20 -80 96q0 57 28.5 85t75.5 28q104 0 105 -154q-1 -200 -146 -311h-126v16z" />
<glyph unicode="&#x2022;" horiz-adv-x="1224" d="M193 545q0 170 122.5 293t292.5 123t293 -123t123 -293q0 -172 -123 -294t-293 -122t-292.5 122t-122.5 294z" />
<glyph unicode="&#x2026;" horiz-adv-x="1632" d="M160 96q0 49 33.5 81t87 32t86 -32t32.5 -81t-32.5 -80.5t-86 -31.5t-87 31.5t-33.5 80.5zM688 96q0 49 33 81t88 32q53 0 86 -32t33 -81t-33 -80.5t-86 -31.5q-55 0 -88 31.5t-33 80.5zM1217 96q0 49 32.5 81t85.5 32q55 0 88 -32t33 -81t-33 -80.5t-88 -31.5 q-53 0 -85.5 31.5t-32.5 80.5z" />
<glyph unicode="&#x202f;" horiz-adv-x="395" />
<glyph unicode="&#x2039;" horiz-adv-x="641" d="M63 479v193l449 305h33v-137l-369 -265l369 -264v-135h-33z" />
<glyph unicode="&#x203a;" horiz-adv-x="641" d="M96 176v135l369 264l-369 265v137h33l446 -305v-193l-446 -303h-33z" />
<glyph unicode="&#x205f;" horiz-adv-x="494" />
<glyph unicode="&#x20ac;" d="M80 471v145h184v207h-184v146h184v39q0 209 135.5 345t368.5 136q207 0 319 -66v-143h-16q-127 63 -303 63q-168 0 -248 -93t-80 -242v-39h457v-146h-457v-207h457v-145h-457v-22q0 -147 84 -233.5t244 -86.5q164 0 319 80h17v-162q-152 -63 -369 -63q-233 0 -352 130 t-119 335v22h-184z" />
<glyph unicode="&#x2122;" horiz-adv-x="1552" d="M63 1352v121h545v-121h-200v-697h-144v697h-201zM705 655v818h110l252 -361l229 361h113v-818h-145v512l-177 -256h-63l-176 242v-498h-143z" />
<glyph unicode="&#x25fc;" horiz-adv-x="1003" d="M0 0v1004h1004v-1004h-1004z" />
</font>
</defs>
</svg>
